<mxfile host="app.diagrams.net" agent="Mozilla/5.0 (Windows NT 10.0; Win64; x64) AppleWebKit/537.36 (KHTML, like Gecko) Chrome/130.0.0.0 Safari/537.36" version="24.8.0">
  <diagram name="PÃ¡gina-1" id="Hl3EerZNaZGESXWsRT2E">
    <mxGraphModel dx="1222" dy="1066" grid="1" gridSize="10" guides="1" tooltips="1" connect="1" arrows="1" fold="1" page="1" pageScale="1" pageWidth="827" pageHeight="1169" math="0" shadow="0">
      <root>
        <mxCell id="0" />
        <mxCell id="1" parent="0" />
        <mxCell id="UnqX31d-6hZHX5KGmmkH-1" value="" style="shape=image;verticalLabelPosition=bottom;labelBackgroundColor=default;verticalAlign=top;aspect=fixed;imageAspect=0;image=data:image/png,iVBORw0KGgoAAAANSUhEUgAAAM8AAACCCAYAAADhR5ztAAAAAXNSR0IArs4c6QAAAARnQU1BAACxjwv8YQUAAAAJcEhZcwAADsMAAA7DAcdvqGQAAA2QSURBVHhe7Z1blqs4DEV7JHdeNZoMpIaQUdR/zSmNH7JlWRJgTCok52OvdQs/sbUNBNP9379//x4AgP1AHgAGgTwADAJ5ABjkI+S53X8fP99fatq78fX98/j9/U3cb0qe2+Me0n6+H19dGtjDZHlOmJjbvQbD78/j+0vJs8Isea4kYZToSfJ80uLEmSdPDPL74ztM2qSJSasoF+br8X3fXzfkORfIc4hlNcvCxEmbIk9aIe83LS2wiPRDVyS5koq0hTq5e8rdH7fleHMrxMnBScHD89V+2+355VZorsh98GryNOfRiSX6WdLD8bCA5StWZNu42HW+B9OfeeKAzpAnX8nCJGnpX9/LVY5fkZZJogAKQckniq+MXjkt4DjWChvbY8HBx2C1n0a5lN8gjo1/C+udi5bWjhnvJwlA7bXnQGXNcVHrbPNdlcvKIykB8fX9+BHlrMkN8ECK/3badIOEn7PSB4K3t6dcZVsQ8nbW08JVRbQbxn/pG7XHr4iyvD4udp2HY+NFuK48MdDCisgIE7omj1WO5aXjMiD0ILGPR5z23HIma7eziV3yaH0MHJHHqRPyGEyTJw++HiQpgPiElQmN5Sx5nHIsf6LPu18ev70xefpg1rDPS0lTxqxyRB5n8XsDnicPrUQ7xAqT0l59lom8h9VQrL5Ud5zQNi32pwSwVy4fK6Sg6QJf6f+aPFZ7Y/LQOfmBKQPcT0vn6o2DJ48+Ll6d78EkefJAhcDg8AEdkCeQBCLqQ3IKIDqefyKniYq3fDltORbyUpDa5ZRz6CZe5MnpngReP0flCbT1Uj3GPFjnV9JCnX06r9OTxxoXu85a15WZfuUB4FOAPAAMAnkAGATyADAI5AFgEMgDwCCQB4BBPkKeI+9TPhWM2Trz5KGXoBn+Uu0Q/IUnPoZ7GnvO9VNFmyRPeJPMAjsG/Figc9JbdF7P0g4+hnsKkGedk27bxJ6uIdbqEFs/mm0/3raQPeXS/jG5FaYgttnwfLXfdnt+OYtQX1hQ0vikcnWfm18nL7OwaczScd6vWPdy7mvj4rd3fV5XnpVPEj73YzgK8npF5udr1SnbLvXwcvnf9HfKm/Jp8vR5a5619t6BU+SJE3F0lVn7nkdQJjQ+e7Xl9MlN8ECI/3batOrpzlfpA8Hb21Ou0gdzHKtcj1WnOp6U5o7ZoDxOe/75XYfp8qwF4GbW5IkTsQQKZ4s8VjmWl47LgFCDxDkecdpzy5kY8uRzNutkgpVjeaz8MTsgj9He4dh4EabKk8Q5/kNBJAddEySFdFvIJ6xMqBsITjmWP9HntQLTDNiV9uxyHutXHrVObTHKx06Tx2gP8ghWxckydKuRQ5iUdrCXifz4j+FkMLeCrvWlpvHz88ZMjEMUoB0zfVy89ni+6zJJnjRQ5baE4AM6IE8gCURUOWmCE+1HZmWCA8uxkJcmzS6XJremLbAASYg8Od2TwOvnEXlqnW0dfp1invj5OWNW5i6wzN+NnUNCHxe3vTfglB8MwJmkQK1XHvBXQJ7LAXleBchzOSDPqwB5ABgE8gAwCOQBYBDIA8AgF5UHD83g75kmT/syc2Jg85d35SXpZ8gz9hIVPItzrjzxjfTxPW7p7TyvZ5Embs+BPODvOem2LWzLOCpP2tqhC0Ly8O0fYg/ckl6uWHJbSHM14wEqyrGtRBTIfLvNNnm9voi0fA7tlh6Gte2l2fIk66TzS8d5n2M7pU6vn0DjHHlCcO7cw9YRA9zagUsT3d7GkQTxFlIERREk1quLfcb/xc3rSxu8PfqVR5xP/pvqadvjdaR8ljxeP4HORHnyJOaV6/At1QZ59EAIq7Iol2XeGxRdcHFZ4q2p1T/C7kuoJ9bv1KHKo41L7ovWp23y+P0sx0DDSbdtE1auUXn4DmBOlCfd7phia2WZPLvPx+kLBWWUMh+X9ZvyyKA+Ks+GfoKek+RpV+0h8oTqgb4WCNulqySxeLDycxiXx+qLpG/flEfWmY8dk2drPwFx4g8GIkizDHtWszDxbaAsAWD82lYDPaVZ4sZ8aqCIPlN/j8iz0peWlJe3EfvajZeUjJdrzyGdaytPKReFo77t6ScgJsmTBz9MRqYRJzAgTyAJRLQ/EOjy1HTeny4olbT2+IwP1wJWX/rjffCKPCU9SaKWIyny8abfNAeBZR7aj9r8MQM9p922gddgXHqwBuR5cyDPeUCeNwfynAfkAWAQyAPAIJAHgEEgDwCDQB4ABpkvz+DLUA35MhMv7sArMVme9Jb6flc2Lw7Q7hoA4LWYKk8M9iCNtvN3AF8esZ2ktKdse1moW3msLS/1nQi/4nXbjCz4tpiFeoUUW2monyH//Tv35efxfatX7NTHsBWJl6378fx+WuMCZjNPnni7lveePUEe78O1hhikrSD177ZcTAsBl9PLYpDLmkRxtA/sZL9yYIf6s2wh6FO7QY4gy0/Nx+rk/fb6uXlcwGGmyRMmtEzSTHloBc1YVwJdtBCMfAe1/HuB9TUGJe93XBC0HdgcJ0CjIKJ8rlO2m8q38jTnOthPbwECx5gjj5RF/j2IO/H0wwRH5A1B1gSgVibQBTErs0q6tVKl1sbhiDxZELefG8YFzGGKPHEllBOWsa4UW7DlSQHLA6jLG4JNlnVW6MCYPEqgEyzg5bEheVYl3zAuYBpTfzAosIkux2hFlMcd1uQpwUV1U15TkhSUVjCNyZP7qbYngzm1H//eJU9bz5o85riAqVxUHgrYpb4I/3AtC1LSMqWePn09KNdp+8PrSQFd0qgfG+TR6/P7aY9Lnxcc4xx5wEHklQe8IpDnJYE8VwDyvCSQ5wpAHgAGgTwADAJ5ABgE8gAwyIfJc7UH8fyOaMe7MfA8pskjXxIGjgapVufoS8wE5AHzmCrPscDuifJMfTuOn4DBPC4sTxKhXJVkvrD9hdIWUt9IHr5lhu9JE3WyFZ+2xPCr4WYJ1b6ENLs93k5zbnmbEx/r0Ld6HnadYC6XlScGTElLAVPaj8Fqf5wm/4PxVO6M/zOc3Re/vZpHGQNeZ/x3XQDwMdzzOO+Zxwj6PXR1LqTVPlw5xC7mEERLMPsBk9L4FcMTlKdFebgs5s5tzr7g1fpi9S8dT59xe1dA7/zAMabJ05KC5uikmRNPO7QlUZ50S6YH1Io8Wr05jW7bqNw2vL4sOO0RdvAbY7yhTjCHk+SZs+L58lirfi+Il1bbSIHOBeHtj8nj9cVvzzsWSP25xfprHdvqBHM4R568+jVBQyvijgdYe+KNVTcTy6lyrctT0qi/uY0xeby++O0R6hjw55xYjp6pttUJ5jBJnhzMYaIiygPyVHkCsk1lxe3SPHlkmfZDslF5AnpfvPb6c4uEtChOew6hbzTm3jmAuZx22wbAuwN5ABgE8gAwCOQBYBDIA8AgkAeAQSAPAIO8sTzpheGe90oA7GGiPOLF3p+/mLPlOfLCEwBimjzxLXcRJgXuqwYo5AEzmCNPs78qEbeJHL5lMq5measPFyBtUUn7vZotKuwKKLfJaHkA2MocefK3NEWUvP+qbF4cpL2aJZGKMLEN/YMwIsqiiIErD5jBXHlo82cM5HDrpmwQ3UwoL4QQkiY57A/CIA84k3nyyCtNFOnAlaeIKGhuBfNtnXHbBXnAmZz2zCOvErvZIF+SQH4QVoE84EzmyENXgCKLeD4J0JVks1D+VaV5ztHkXbDkicePiA3AwiR5AjnY8+1Vt7LvlifQ1lnqzbeJ2gdhWplII5HIYwkKgMNEeQD4LCAPAINAHgAGgTwADAJ5wCk0P9YItPxXBPKAU9CkIbT8VwTygFPQpCG0/FfksvLEF500Ico7HG2v28cjtlG1/0eFuZS5UdDyX5Fp8qSXlC3P2ALT7yKAPBZFFm0v4mRkLHC0/Fdkqjx/sV8M8rwmmjSElv+KPEkeuWVGrHhlJUzUevKn1ISytceWh5fl7Ym+bNou1AtZ2g19z59FxO+LbnIb0kh7AevcQ31hH591fgvmeHp9WRvrnN6MtU2pR0HLf0WeIk8f4Iw40dp3P2miu4kX9Vjy1Drbesb+z2kpnynPEhAhLd26hkAOgZbaP9Kefu7532zMYrs0BuZ4en3x2qP8kEdy6jMPBVsMNPX+Wk4aIwaBKKN8pmDJowZ6ybMtreLUGfqZV+m6gFR52no2tuecu9YX6oM7ngrNOWwY6z3IWOBo+a/I0555uFw1X1rNmkAgWFCWYzPkod3dnLVgPiLPSHvOuZvyxDRnPANWXzaO9R6aNgRa/ivyBz8YpAlOeZVAIHJANJOnHNsnD2/bKq8xJs9we865m/IsfXDH0+uL0x7ksfkDedIEU944geokycluyxF9MDqBnussabQSrwWzbDsGVi6XA9eTZ3973rnL82vzro2n3hevvbb8et8TUhiOlv+KnPrMwye7SRMTkCa8ptdJyxNGlHJKnSVdBlcrWNvW8gDN0lz4Lc8iy43KOfKE27bh9nacexvk/VxQut8Xqz0C8kimyQOeRb84aGy/EzgHTRpCy39FIM/l2CJPyKP/2vcsNGkILf8VgTyXY9uV56/RpCG0/FcE8oBT0KQhtPxXBPIAMAjkAWAQyAPAIJAHgEEgDwCDQB4ABoE8AAwCeQAYBPIAMAjkAWCIf4//AYHpzD6baoviAAAAAElFTkSuQmCC;" parent="1" vertex="1">
          <mxGeometry x="1560" y="520" width="207" height="130" as="geometry" />
        </mxCell>
        <mxCell id="UnqX31d-6hZHX5KGmmkH-2" value="" style="shape=image;verticalLabelPosition=bottom;labelBackgroundColor=default;verticalAlign=top;aspect=fixed;imageAspect=0;image=data:image/png,iVBORw0KGgoAAAANSUhEUgAAAK8AAABLCAYAAAAGR9fhAAAAAXNSR0IArs4c6QAAAARnQU1BAACxjwv8YQUAAAAJcEhZcwAADsMAAA7DAcdvqGQAAAWwSURBVHhe7ZxblqsgEEXvSHpeGY0DcQgZRf4zJ688CgsoEIU8Kp6PvVa3QIGwRRLo/vf397cAoBHIC9QCeYFaIC9QC+QFaoG8QC2QF6gF8gK1QF6gFsgL1KJI3tsyP57LfZLSWpiW+/O5PB/zchPT38k3tUUvA+R9wUDc5uWRxYS8IKZP3um+PJ/3ZZ4fQwfitsZ7zNMq62OZb3S9V17wa3TIu84eXlgj2zh5N0mdxLfkup+1LPdl8uWm+9PmtW3x6SQ6v/a8Tz7efrld7MPr466kbQ1prG+KbfFvmy2Ga9t2j+WYV2XImtcOyKjOtIPoB8zIEeLS4G2zsR1cL4Ab6O13qU32miDvXjkRKy5/M2zc5vVtlLwxuJQuT96WKKZ/q9HD2RLzanydvPGgmlmWBHEDFs2KbICthLwN/CHwFOXdKZdzTB6pXlHecH3O7zWhVP5KfJm8uaBGLieJIC8TbcvH0hOkAW8pl+OWLkW5/BIgvOLZzE6U5XP3maU1xLwa3yWvNECGNXZx5vX1vldeoS0BJzaPKdVbkte1x3xY5THaYl6N18pLMraKzWQM12yMx/pzKoz7nQb0vfL6WOLyIpmVqQ9a5OXrXH/fbsnUFvNqdMjrX2+mEzlcvoPyyiK5eqT6eN6yhIV2+oE/K6/BCbzFpDjxdf9Voq2v0hYrbjybm7bRB7hyzLhNV2LIzAvAJ4C8QC2QF6gF8gK1QF6gFsgL1AJ5gVp+TF73ZX7zpghQTae8yZfuQ7409wIy5G1YCch7JbrktTtAQVgnztndKod7GPpigKtwXt5o791htzB7Zj0hZkwy07O6ou3T5A1AW8A8T/tsDr6V8/Kmh2j83rx8WKUVklMW+Owhb3dGYJO6+yEDX0G/vHT4xkprlg61mbMNPkPWlhCSqEV5uay2zT0PGfgG+uRNZ9rRUtCDQTKGB4XRKC/W0b/H0DVvtpQYAL3ipQ+ER2ZeyPt7nJeX1qdBVmENSjPlaaF9HVZGJ++ZQ96Q9zfpkNdAH7AcmSBH5Q1LEQYT0YoZ0hoPea/lIO9v0ikvAJ8D8gK1QF6gFsgL1AJ5wTCyD8wMKX8vkBcMQ5KWkPL3AnnBMCRpCSl/L6rkjb7njTYi3Pe8OCkmkGzjx4ebxhLGRkDK30uXvPbAS9LId2wG5LtokLdEkFU6izKY1AWOlL+Xbnk/sXMFeb8TSVpCyt/LC+VNt2yTJz7ZCt7i+D/lIYSt5bK8vCyvL2lL03Z1/kCEek3b/f/QtWePp3Qb/Ex9htK9m3jmEFTp/laK/Vlry15f+/Sor8uEOAJS/l5eJm8uGMN2tHTu13V01vFJnJK8W8w4zrn/Ku7yFeVdB8SkuaWTEckMtKu/pz753v3PrM9svdQHxf6staVWH+X/cXnTRtJg24EW11dppzHsICRl7OGe+FpJXlG0kKctbaMS07TTz1LbA7zJG8dprK9y71JbqA3V/hSI7qGhr4+QusCR8vfy0jUvl3vL557maCAIJkW4NkJeOt3G2ZOpR94z9VXuvSivTav0p6HUlsa+PkJUR4KUv5c3fWBzHezyCgNB+AGJOk+4dkxeXnepvMQ5eU/XV7n3orxrG6r9WWtLpT7IG+E6mPLaDhQ7Ke3suByRy1ARzccMaTQT7cmU1m0H1pfz4tTkPV5f7d7T+4vz7vWn3JZafXH5/bY7UmE5Uv5ehq95eWdHaUkHuA7f0rdO8x1GhHJCzJCeDm4seFzX+gGGpVXhr9xV1onKVeQ1y4bT9R2491iyfCwovd6WUn3ED8sL3kX+cEq0vwlfgyQtIeXvBfKqoEVek0f+tuNdSNISUv5eIK8K2mbeTyNJS0j5e4G8YBiStISUvxfIC9QCeYFaIC9QC+QFaoG8QC2QF6gF8gK1QF6gFsgL1AJ5gVogL1AL5AVqgbxALZAXqAXyArVAXqAWyAuU8rf8B8WFERUYQ/45AAAAAElFTkSuQmCC;" parent="1" vertex="1">
          <mxGeometry x="1340" y="160" width="175" height="75" as="geometry" />
        </mxCell>
        <mxCell id="UnqX31d-6hZHX5KGmmkH-3" value="" style="endArrow=classic;html=1;rounded=0;entryX=0.5;entryY=1;entryDx=0;entryDy=0;exitX=0.25;exitY=0;exitDx=0;exitDy=0;" parent="1" source="UnqX31d-6hZHX5KGmmkH-1" target="UnqX31d-6hZHX5KGmmkH-2" edge="1">
          <mxGeometry width="50" height="50" relative="1" as="geometry">
            <mxPoint x="1540" y="510" as="sourcePoint" />
            <mxPoint x="1590" y="460" as="targetPoint" />
          </mxGeometry>
        </mxCell>
        <mxCell id="UnqX31d-6hZHX5KGmmkH-4" value="5" style="edgeLabel;html=1;align=center;verticalAlign=middle;resizable=0;points=[];fontSize=28;" parent="UnqX31d-6hZHX5KGmmkH-3" vertex="1" connectable="0">
          <mxGeometry x="0.0063" y="-2" relative="1" as="geometry">
            <mxPoint x="20" y="-5" as="offset" />
          </mxGeometry>
        </mxCell>
        <mxCell id="UnqX31d-6hZHX5KGmmkH-5" value="" style="endArrow=classic;html=1;rounded=0;exitX=1;exitY=0.5;exitDx=0;exitDy=0;entryX=0;entryY=0.5;entryDx=0;entryDy=0;" parent="1" source="UnqX31d-6hZHX5KGmmkH-2" target="UnqX31d-6hZHX5KGmmkH-6" edge="1">
          <mxGeometry width="50" height="50" relative="1" as="geometry">
            <mxPoint x="1540" y="360" as="sourcePoint" />
            <mxPoint x="1650" y="200" as="targetPoint" />
          </mxGeometry>
        </mxCell>
        <mxCell id="UnqX31d-6hZHX5KGmmkH-6" value="" style="shape=image;verticalLabelPosition=bottom;labelBackgroundColor=default;verticalAlign=top;aspect=fixed;imageAspect=0;image=data:image/png,iVBORw0KGgoAAAANSUhEUgAAATsAAAAqCAYAAADMIfxNAAAAAXNSR0IArs4c6QAAAARnQU1BAACxjwv8YQUAAAAJcEhZcwAADsMAAA7DAcdvqGQAAAUgSURBVHhe7ZnNcdswEIXdgX31jEcVpIlMesiM+sidJaQA3p0Dq9Bd57TDEH/kAthdghTEyMI7fAcB2OXDYvFIj19Op9MIAADPDswOANAEMDsAQBPA7AAATQCzAwA0AcwOANAEMDsAQBPA7AAAh3G9XkW49TWB2QEADoMzuQC3viYwOwDAYXAmF+DW1+QOZteNgxF/6cczOy+xN+4rcx77y3UcOm7u2bl178/QL+31PGdyAW59TbaZXTdkAi/9OVlX3+y6gXvOMwCzg9k9yh4ELed+vJhxDz0vcy+pF7BnGeJ9Xro+JYutzA6zG8Yu/PYbubcRweyekZb3/mD4e933l8TszBldxv5M15HfFOsF6Zw/42GK+/Jml4ydTbGC+KGLY8ObI8IVR4qLxinzGlfMfHyNJK74zZrERbWQtJhxs0+6/xDnYoaOm2NyFunUnhfm+ZzhpULrvpiRi/v8/JvF6UjPc+PS3jUtWp/pe9BI+rN4fxP2Diyxy4tZrrW4B+YDwn1BxT3D5XT4fRTfhWm9z2E1qft2ufl6mrnY7OZ8pj4+76ybIc5Xn9vNjnF0u0mmCecxf6Bp0bg4Q2hgbnxZ75qAW5dy7qe32Kx3SxyvzyBrCc0ZalQ6t1dnmjPWpuW060zjzWuX5jdxv378HF9exvHt7U+hFu15uk5Ni8vlx+aakxwrcTlpbb22JDeLvRNx/wdKzo/tKZozuXPrObea3cJ6rRSzI4Zmf1NfIHPB2DiynJW53ewkR4+KnRZpw8FPmAZO17qciZa04IVIz02x67L9G2QtYa+0QZbnaXPLWMncQp5TqwvNaY0ia9hlXx8f38bX19/j+/v3Qi052t5pf61piXMtYyVxGVxfl8QJfSzB6ZXq6Mb7vEYJUvwebC6hTwxZbf3+g1lRndGdJf1HzS0lxN6Lg77sfFHCGBNjkA4uKlzA5sgLph3WDBdb2DD2wH3MrEnRwl3qZZ/anJB3VWeeMzo3JSdb58DemolxjE671ulUtXi4fimJyyCXcR4jWqK1EcqXjqGgZlLPZ3cmsPccCrBahPtj59R6OL229mk9n8XsuCJITUg3xjWkdPBsAxc1I4drUJpPeq4OyaNq0QxNm9urkzER32xrOWWj2KtFi5N1mktxuNml58eNZTB7mCmrmVRHt4/O5l9y7D2HMmwuxuzsOPNxkhK0GO30rlNMrbhxA5ezJreZnf2dH3Z2AIXGJB0cfwiu0bYftGuYWXN4U27O457vGk/Tkl+IZZ/a3F6daU56QfSca2a3XYsWl+p0v8PzDzW7qEbmd6xFw2pge7usZtweontm44LRlOR0a7KcBVgtyT1z+1s3ukwbxezH500NjpLFVWaH2VGBtAiuQeL5CV90zu1dM+lxbO55Lo8tb9AQM7h/ua82B6NT0zhB90ebYGlwba6eTloTLadmFPu0aHG6TllLHmcp2IOON4kkXwnxHpfnb9m7xcwxHxDu7ri7tn4OW81O0DKZU1aTaC6PY43O8CXNbi/2DZS8/aI3FqiHa0Kx8QD4j3AmF+DW1+QYs6Of5R73hlr/0xZsBWYHHhfO5ALc+pocY3YT+Z+xMLr7ALMDj0vsATHc+pocZnYAAMCZXIBbXxOYHQCgCWB2AIAmgNkBAJoAZgcAaAKYHQCgCWB2AIAmgNkBAJoAZgcAaAKYHQCgCWB2AIAmgNkBAJoAZgcAaAKYHQCgCWB2AIAmgNkBAJoAZgcAaAKYHQCgCWB2AIAGOI3/AHcskEFUYXdUAAAAAElFTkSuQmCC;" parent="1" vertex="1">
          <mxGeometry x="1654" y="176.5" width="315" height="42" as="geometry" />
        </mxCell>
        <mxCell id="UnqX31d-6hZHX5KGmmkH-7" value="1" style="edgeLabel;html=1;align=center;verticalAlign=middle;resizable=0;points=[];fontSize=28;" parent="1" vertex="1" connectable="0">
          <mxGeometry x="1499.9983896509614" y="350.00059924339445" as="geometry">
            <mxPoint x="81" y="-176" as="offset" />
          </mxGeometry>
        </mxCell>
        <mxCell id="UnqX31d-6hZHX5KGmmkH-8" value="" style="endArrow=classic;html=1;rounded=0;entryX=0.75;entryY=0;entryDx=0;entryDy=0;exitX=0.5;exitY=1;exitDx=0;exitDy=0;" parent="1" source="UnqX31d-6hZHX5KGmmkH-6" target="UnqX31d-6hZHX5KGmmkH-1" edge="1">
          <mxGeometry width="50" height="50" relative="1" as="geometry">
            <mxPoint x="1951" y="503.5" as="sourcePoint" />
            <mxPoint x="1767" y="218.5" as="targetPoint" />
          </mxGeometry>
        </mxCell>
        <mxCell id="UnqX31d-6hZHX5KGmmkH-10" value="" style="endArrow=classic;html=1;rounded=0;exitX=0;exitY=0;exitDx=0;exitDy=0;entryX=1.002;entryY=0.655;entryDx=0;entryDy=0;entryPerimeter=0;" parent="1" source="UnqX31d-6hZHX5KGmmkH-1" target="UnqX31d-6hZHX5KGmmkH-13" edge="1">
          <mxGeometry width="50" height="50" relative="1" as="geometry">
            <mxPoint x="1500" y="535" as="sourcePoint" />
            <mxPoint x="1360" y="300" as="targetPoint" />
          </mxGeometry>
        </mxCell>
        <mxCell id="UnqX31d-6hZHX5KGmmkH-11" value="1" style="edgeLabel;html=1;align=center;verticalAlign=middle;resizable=0;points=[];fontSize=28;" parent="UnqX31d-6hZHX5KGmmkH-10" vertex="1" connectable="0">
          <mxGeometry x="0.0063" y="-2" relative="1" as="geometry">
            <mxPoint x="20" y="-5" as="offset" />
          </mxGeometry>
        </mxCell>
        <mxCell id="UnqX31d-6hZHX5KGmmkH-13" value="" style="shape=image;verticalLabelPosition=bottom;labelBackgroundColor=default;verticalAlign=top;aspect=fixed;imageAspect=0;image=data:image/png,iVBORw0KGgoAAAANSUhEUgAAAaQAAABcCAYAAAAh+sH1AAAAAXNSR0IArs4c6QAAAARnQU1BAACxjwv8YQUAAAAJcEhZcwAADsMAAA7DAcdvqGQAABI9SURBVHhe7Z1bmuOqDkbPSPa8ajQZSIaQUdR75pRjITACJIGxnbgr/8P6usJF6IZk967s/t9///33AgAAAD4NGhIAAIBLgIYEAADgEqAhAQAAuAQHNaTb6/F8vp6/99ePOm8xuw8Qt8fz9Xv/UeeO4Of++3pSfIjHTVnzzfHTbbd99vO6/z5fj1teCwAo6Tek2yNfsEhbBI9vSGcX27/Au3wUiuybGtK74140kOfv6/6jr2vxbW99hoYEQI/BhvR43dLnn/vrd7mIZxcNNKQ+n29Ix/POuNNZRW5T03gc01zRkADYzvaGVI0VT5hN0YpPkQX8FGrtK8Yl6xq+2O14j0qXoad6Oov0lXulLwyZ5J+lsLGey/4bN/F85qwN1b6FXLxn7ItUb8F1Q9Aakh93yz7bn/vjHmU24wbhwcp6I+KzZPOQPvBtb9czSaaVS7Z9qUnLc4Nup+UZAJ9hriEpl7m9gPEJNI3FN6v6CVHbR1hPyoXMeOH6T9T1unhRuxc0Xehkq5TjyIwFnmzNT+FUiFjOnA31PukjR5e41iToahVmxoqRNWfbF/VS/Zn3ar7o+2xbQwp6m02b5VsNyRuz53zbPfvCnLAt6X5WngHwKeYakkj6NNZeQC4Q+VLrF8K61HSZ2stDMitdSL/e24BmQ2iQtV01rLNamByZUqdsB/ts2gZF31X2Tvt6RcqKkT5n2+f6M34+NO4O4dy0Pz4shaI/qKc1Zs95Mn37QmORtp6ZZwB8kBPfkPgCrmPKHsK61GphkoVD0rtk2kWMl7qwq8EpIo5Mt1DM2qDou8qeto90Ku3TsGKkzjn2TTekWZ85hHPr/dGPb29IHftUnxBn5BkAH2SqIYWLpI1Vl5MuibwM2qWyLrVdmHpFVkGxQR1r6DQkQ2b40y0UEzYo+1bZB9qnYcVInXPt29OQJnzmEfxTPSDFuH2mIdn2qT4hzsgzAD7I9oYUPrdFrLmAgxfCutRhvHma40ttFQEbfhPIl5rlqJe8wCtMjkyvUOy0IekS9FjPn7UvyfHjZMVIn/Ps8/wpPk/FnX3gr5FEmfKsqiGt/os5X8ue8Ytuu2/fVEMa8hkA12KwIS2JvSKfKmPSF/ML8RLQJann+NL4+1TZ61y7d6TwrgUrMXRR+Sy7gBoynULBvpu0QcZiOYt0yftm7GOCTWJvP0beHMm07Ov5U9nblZn2Rfs32E00OZoaVHigymO3unnIPcTgnG27bd9MQ9qVZwB8iH5DmkV7Qwpj7X9HAgAAAM5rSOFpvmxI/CTe/2s8AAAA38d5DWmh/Ss7NCMAAAA6pzYkAAAAYBQ0JAAAAJcADQkAAMAlQEMCAABwCQ5qSPE7IOk7HMPM7gOnIL7Xos4PUnyvaeP3ggLy+1b4msAA+j3y40B7/pVfMpqx7yTk99Pe4r8L2f4G+g2pKA5M++W62cZi7zO/DPhHmLXvNL8Y3xHbc164NJsvC+eE/AIp6OHfPysOYXzznf0Ec/aZ+4qmUuZa/ZvBRR7WX2U56AHOZ9b2f5PBhiSCEIN5drNAQ9I5xy/8jX5N7tsbUsgvfD3gSLw4/IV7ptoX69ad5opiTrkuHrzCOuMtvHhIq/YFtLH3goZUjQWHpCeKxjGxuxdwAK19xbhkXVP971CGg1HpsuXJJtib9+YLbMlMiSrnFX9JLPuizP6+nfZV64+IQ5DRjHf2afkW2O5r3tfXU8c7r/e/P7IwdCGbt/xDeyJWRZwMHVz9zAeAaP+wv4ir2LfoHmWEOSGvhe3U38hpjusV29CeT/K5HlT5Evj9bGwtwh3LZ3brWdeG45hrSMWTA6M5hp6+1rH4ZlUH3nKo9eRWyIzB7D/h1etiEowEMthf2sp4MuPP6756rW3fz315qlvPGt3n6SLX6Vi6eHMjcejmhNhXXD6J8KduX/zZ8PWIni3982YakqlLLBAkM6wJ9y0Xw15OEJ4Ovn6tPUwsTgN2Ja5oX5ibbUikd9xLevMaUbRpbllDuha2y1r30dgqBH3SXZHUZ/PnILtjQylnH3MNSVGmdUwd6G3OJsPrtSyz0oX063VqzQbzyVCi6xxwZKZ92fbWTt2+lqF90/YRra6SPXHQc6KzT7Nl2tfH58tIbHVsXaRO2d+0Xr/w2nmeDj39RnPR55r2hTkn3qRPOc/xDQ1nrV80xrqu+pNNdObyJ9sic4JlrOs+GNsSoVc9R3paOb/Rhj2c+IYUA5vGlD2E5dBsuBgPMnKyrDgJFxAOXceiswu7GupEEzgyk+1e0VLtIzQbe/um7SMcGxf2xKGJ7cg+Ld9mfT2oZ8PO2Ko4usjz1Auv7a3O83To6Tekf4+L2hfm6ljKOfeOcKz5T1pHOvN62hvsWGxL61Ydgj3Rtg/HtsS5617O92yQe3Yy1ZC0QGqOIeWlo9mQPE9YDs2Gi/HoIDuBDBQb1LGGtvisODJHipZqX0wYOT60b9o+wrFxYU8cmtiO7Bu1ZcTXJ+TLSGxVPF1ItnHhR3LCGhuZI/Rc3MhF7QtzdaFN4wMFldaxjottwkayg3KA5ulP+qzWug/HtmSynjk2fL4hhc+tUY1jBouB5dAw3iQSO3Q8AIk68CxHJoJF0EO1w5PZL1q6fSxz3Rd8WNrr7Zuxj8hJ1s7tiUNt89A+7WJM+3pMz5b+eetcvA/9MxxdnAs/khNE6+uxOc1/DJ/btytxTfvCXJW/YWyomLJubNuSk2tNSzrT+GKDV+s+ZXuSpdq+sZ45NnyoIS2GrUglYhIW8wvRQaR8PcfG+PtU2etcuzc70YMd3srrw0HUzrNkso56kUxjun3lWfHXVgf27bGPY2xcqM1xaMcD3X3xPFOXWV93zjNx/JkuO7Fc1PyP98n9GoYunQtv54Tna29O6GQW02j/kF2Jq9hnzC06NHEt5tp9nFc0Trqm+eXne6yL0T9mrftUbI2GRJRnJp1orvJNktexQcreS78hzaIlehg73giwF07wnJjgW8gFRp8HjOsn1LrDOK8hKU+63Jm1pzHwcXCBvo5wH5UnaKDQ3I/lDUG+QaDWHcJ5DWmhfY1FgC6NeDVX58Efgv7KBfdxE6Hx5Hom/5oYte4YTm1IAAAAwChoSAAAAC4BGhIAAIBLgIYEAADgEhzUkOLvr2/+D+Kz+/49/sKv155tQ/H9CPmdipXvyZczuGYO8lcO5C8IgO+l35Cq3ywh2qQ+viH9hQIuQUMaJzSmNzWk98VF+TKjauN5nGtrjM1m+/6lhlTF8M3x+wYGG5L4Fcbw+/jnX2I0pOvx+YZ0PO9uSLnwcgF/Z068oyHV9vUbzb/TkMh/OS/fH79vYHtDqsb8v2ZRnpril8usfcW4ZF0z+5RS6TL8lG2dR+Nki5Qr/VTtW8jJa9uQiob0Q76sHdurt9l83kG2L+yXuWDqyWgNyc8zyy80rsdof55Fmc24BcurY8m213O1DypdTo9fva+6/yosT9pQNkDrvGR7GyN/X967zg3pOYnyxfEQoy15D7rMNSQrONXlLJ4o4ptV/SSk7SOsp7nyKYUTUltXUq+LiaycW2Ofly5D8kN5RrmvtMezIczR5YrzMum9fRynMibquqS30M3CtmFepq1nxsoJa872S9TLiFHaKz/LcV1mWhML5YjNAZax5n9xH6q5BWnnyD/ipjEbP8//NnVDos+W3+V58WeRE1nvM/SchPJWNp/1oerEJviFzDWkItmYNjnqBK2Ti7GSSi8UJLPSpU4UDc2GUBB6yWSfl+xRi4giO9vj2xAuo7QnyhrRpfVXXFPvG7Hds2Han46eAq/Q6HlWnTsSo/j50DxzYV3y07y8P309Jd7cyo74Bfn1fBfymbRP+NU5T7M9rT9Hz0lS/MP5ZB+dSzaXdRDs48Q3pHgB05iyh7Aul1oo1mSo6BWKlExyTCR2sVbinOcWEUX2ak/HBr1ALri6cDEoLnVil+2GDbMyPT0FVk6oc65f+oX+0Dxzkbrwz/ncjp6aPoZ/VnbGj9ams9R8bKhjyzYFPZ3zNNvXuVP0XAgy8r6hpka61GsrXcB+phpSuCzaWHVJZLIQWsJo+wi7UEwkgGKDOlbjnucUEWXfak/HBtVuYqMuKwfavuo2K9PTU2DlhDo3G6P4+dA8c6l0Kfzl6cmFXuro+WflsPi15+soDxskkx4MnPPUnBjYN6/nJMGf1QN11HP+IQXUbG9I4XOVQAvbCkXGulxhvAk2J2/3MjbUycpy+snrndcvImkujK/n+zaYDamzj88Yuaijtns2zMr09MxkP47MeX7hOT1G4vNUnrEP/DWSWhfpM/nzMhfvGMsu48D3auTco+LnzUkqPYt93nn88/Z9ab22r547Apafc+Xs876TwYa0BGKl/bvvcn4hXhYqrvUcB9Dfp8pe59q9Y0nByd3K62Gdx+P5IlXFTvptGaO5rKdtg92Q/H1E7e88N2m7a8OsP3NxTLDM1rZAkOvNkUzLLzxuxkjb25WZ9kX7h+1udWH/xvuUGg2xFD35j/6V/tL+0UaDqfi1do/ZWMlr9o2fp/o5sVvPPZRnlnqCI+g3pFm0NyTttRccit/QAADgupzXkMLTWdmQ+Emv/9d4YBZ6gkPDBwD8m5zXkBbav7JDMwIAAKBzakMCAAAARkFDAgAAcAnQkAAAAFwCNCQAAACXAA0JAADAJUBDAgAAcAnQkAAAAFwCNCQAAACXAA0JAADAJUBDAgAAcAnQkAAAAFwCNCQAAACXAA0JAADAJUBDAgAAcAnQkAAAAFwCNCQAAACXAA0JAADAJUBDAgAAcAnQkAAAAFwCNCQAAACXAA0JAADAJdjdkH7uv6/n88k8bsqa2+tBc7/3108z9xfQ7bP98vO6/z5fj1te+9e5PZ6v3/uPOncl/hU9AfirjDek2yMX2Ofv6/5TzocC/KaGdEbhKBqIYp+Nb1/rFzSkWc5uGGhIAHyWoYbExVoW6aWoPpQ3ArUhHc/RhYPkPZ+P120da+2bBQ0JDQkAMMZAQ+I3gF4B1RoSN7L41tE0Ky7M7TyNU/OLbx4BbhaFPEmxVxt3+Lm/fs03orZ5SDt9+9r1TJLZ2ifnNbmpYMpzg2709ro0UN632HIjm5af17e2Cb8kijdjWbArmcUbYjU3vW8s7qZfNp8n9ZTxWTDegFVMnxkyu/Hz0H2Wxq3cDYzGVsnfvM/J3WJuhz/B19BvSCFpZWLptIXXn6Miksc4kflCpKROTULO5b3ysxzXZZbrJEE383KwDPdSG2P2nG+fZ0OYo8sc55PuqbCQnryG4kUFgM+Y8UsgyE16lvzcH2Lcs4E/pzlvn+dHQsqpxzW/UEzn9Kx9xJ893VZMnzkyO/Er5ZTYPmP5Zu46sS39Uurtxainy5Q/wVfxoYZEl62SSedQce1dpIVcOPIaT6b3JBZkpzXhbYkKwsKgLtaYPefJ9G0IhULaE/R9NGvYN1zQZv3SFhGf1YaokzxPjxcj/RN+rnUVWHIsv2hyhvQk/9T7HZkZx2eOTC9+Qw1J1cvLMy+2fr54MTLnpv0Jvo3PNKSQjLHwS5ak9y8Sf1YLkyPTK7xBdr0mXsARXawxe86R2bHBKsheQZv1C+8v9SzQ5K42lPlS6G3tE2vTeG2rZb/pF2JGT+HPUk7vHjg+c2R68es1JEL3mZe7jp6avwihu36eMzftT/Bt9BtSTFCzMEU2FWU3Gfc0pIkEp8tSX/x4gT7TkGwbVLsJp6DNX/xWzwwXNKmLZ0Opk7FPrGfatZb9pl9m9Qw5UflMG2twfObI9OI30pAy0l4vdx09N+VL6191btqf4NsY+KUGviRl8iwJveG37No5vhD6eu8iic/1E5cr0yPuk/JigUhz64ULl6g9Y8Z2r1BYsszC6xS0eb9EvdSiwcVmtSEUsXRGOccypE7Wvji2Uvl+Ichq4u74ZaeeWWari0XPZ6pMJ37bGpLUs9K5yl1bT943li+eX+TcgD9TbJT4gu9hqCER3JQS6aLE5F3HIyGZvTl9Lycoj69FZCFcnuKCVHu7MrMsi9K+hXQx0kWJY7dVF8++/pxtn22DWXi7BW3eL6lQ1/vK8cfrLm1IxY9Yxmhtf5/is9UniWpNnDf9sjCrZyqicl7K9SjPlLoZMqcbUsdnZu7yvK2nlS/eeb34dfyJhgQWhhsSAAAAcCZoSAAAAC4BGhIAAIBLgIYEAADgEqAhAQAAuARoSAAAAC4BGhIAAIBLgIYEAADgEqAhAQAAuARoSAAAAC7Af6//A9fsWZ6tig6UAAAAAElFTkSuQmCC;" parent="1" vertex="1">
          <mxGeometry x="890" y="258" width="420" height="92" as="geometry" />
        </mxCell>
        <mxCell id="UnqX31d-6hZHX5KGmmkH-14" value="" style="endArrow=classic;html=1;rounded=0;entryX=0;entryY=0.25;entryDx=0;entryDy=0;exitX=1;exitY=1;exitDx=0;exitDy=0;" parent="1" source="UnqX31d-6hZHX5KGmmkH-13" target="UnqX31d-6hZHX5KGmmkH-1" edge="1">
          <mxGeometry width="50" height="50" relative="1" as="geometry">
            <mxPoint x="1327" y="310" as="sourcePoint" />
            <mxPoint x="1230" y="611" as="targetPoint" />
          </mxGeometry>
        </mxCell>
        <mxCell id="UnqX31d-6hZHX5KGmmkH-15" value="" style="shape=image;verticalLabelPosition=bottom;labelBackgroundColor=default;verticalAlign=top;aspect=fixed;imageAspect=0;image=data:image/png,iVBORw0KGgoAAAANSUhEUgAAAUwAAABkCAYAAADt5gmwAAAAAXNSR0IArs4c6QAAAARnQU1BAACxjwv8YQUAAAAJcEhZcwAADsMAAA7DAcdvqGQAABDDSURBVHhe7Z3LcSQ3EobHA+mkkCIUY8E6sbe1YCNoTV/3JgPahLaC9/GptxLPBJCZyEJXkd3kf/hCQzwS+cJfxVGT8+Pnz593AAAAcyCYAADgBIIJAABOIJgAAOAEggkAAE4gmAAA4ASCCQAATiCYAADgBIIJAABOHhTMy/3269f91/v1/ibOa6zuA8Tl9uv+fn0T556Jp/HzckOvNazcP9pzu1/Eue+DLpjUZJRUxtj8xwvmq4jBZ/IVBfO0mN6u9/df7/frGx9/u1/fWW/fLmzuO7B2b9+u78c/eEJ99vvyWUwEkz1RUmBnX1QI5hwIppcojL1dOquKZBQP9JyPo+tEIvx+vWx16h9qz4lfMLux8LShJwMxPKHTE6whJkTb14xzyprVt4LOF9eTjM4if/lengvFJuXndk1+bvsv/dNzNYZu30Zt2uPjy5eC1+R2yXut8zQ/43i1keq9xT+v+0p8CapHv1544ww+TO3aORtiZ/bsfOr7bPpc+3xp8t31n+1nIuSPn5VJeXH3NBH9pDPozNrTti9r/dnnKzLEN2GfYGrNJiS+jKU3094xaR+RkyGN1/UxeGldS78uJW1a1JzcHCu3Y9gMOYuxBn9D/qiA0c5aDP0+niPDl7RWJq1jteRnRN/r16FWW+PNzpv5yXugr39dW9fMzpsh2uxFNNVs6PWBdLaSs7frjd2L1u+wTsgn+WDts9DuT5yb25T2W37WddHeKDQLgsnFt6uL5Ys2N8YavxZ9ovP2+JrYJ5js8uexMfExcTWh/oIRlIyxYchm50vf+BJSDOoTkjM2RfHXsMl9qnHEnC3HIPhbbB8YX+974xePTznP9NPK57C2rlmPjxBiJHKcwQ5dPLI19vWInbN2bRuflk8pBu1e9IR1rjzINqUxr59irRZofWhrYPmizfn7RbiLTk54w4yNVcaEPYRUMEIsRrCx2exRmrUgNbSYwB7jghs2+VyNIwnmagyCv8X2gfHxeos1yGu02C0/rXwOa+ua9fgIyrsimCH3zMYBOYs2utqm+NR8Esa+GWQ372nsO2xK98/0k6Hd3X2M+eTnW76oc85+of1DXzjZJZghUdKYkHheLCk4LeliMlwNLSDEII4NTARTsRn+mwpW4+CCuRCDUvBg+8D4ZN/ZfF6jnGf6+YhgLsVHCDESwc/uAc5ib9Y26DnL4sz95/Gp+Zzs88Pt+GxKY7qfLd51JqEOrU4EZj1ozXn6hb7end+KXzDD12MDDol3CoPWGGF8aN7YrPsD7Zsn2pkX27rghk3K0VBwWk/fkj8WQ/Yl+FHOPyq+1o7erNZ5lp+dX6mXeC7kuq/GF5HjiDbqWV6bcZ2cszb2IgYpvlk+tX1+eAw+m7Wf65juJ6fPQyae6/ad3ZUyFnyNDzPLl7X+3L52apPFRDC3BBT4Uzk60s5vsAbp56LT9j7Rdpkb92oJbUmFzLgKGs/iTdE2mGLTEMyYu8UYeC22s8iXum89vrJng/thXxzjPMvPfHGJLUeX4cJqdV+JLxH8kS5Ie5arBpOchf4oc7f7lcVn5dPapzP6wvfoNoV9hMPPgio6qU5T3yPyWdE/Grd8WetPO3YvumCuIiWUPTmateCTiM0zviV8NeoFlOf38F1yZuMS1S/M8YIpPNXjE++xV2FwJN/o8h/2sIZghns8/LXJ9+J4wdygp1D76guxfC6+2eVnf1Uizrv47oJJ3+riHp8imAAA8BWBYAIAPoQ///yPOP5KQDABAKfzxx//vf/4cb///vv/xPlXAYIJADidv//+1/233/65//XXv8X5V+FBwUyfedr9F+qr+8Br46v76kdXzvjIy6t8jOa7f9zno9AFk38IOTEW5HjBROG/MhDMs9jj54fGxH9gYYN/yqD9gP04/4xMBJN9jCAFfnaiX6VBwXms9sAZvfMq/bjHz4+LiT6KxT4DGzSlfk2C+Qq55fgFsxtrng7DjxelN4mGmChtn/S0adfEz8GN4zM6X1xvw7nQfG/NRW447nN9Mk787N7ca8Mc76dl045BI8Y2vCWEGG1ftLpHupxt1Lx0c01eduxz94tl8/ga2XWwztP8jONSjZoacEpuZvGleXcue+L+7Bv5U3P7GuwTTOGnJnIxypoNaoIylt5M+8so7SO0p19jMzXFPNn9utRk04LnZqyx8vPDn1njhFhSc5l+dk/Yyhl+2jatGOJ6iWhDF0zuS39+v76OtTmLX+d901/Mq+xr52RfJHSbvY0UbxfLSFq3s5dm5838lGvUr61rZudFIJj7BDME3F748QK0SRkLEZEuDiEXk2x2vpB/swuuin4fV8/YdPy80Kz87GTT8lPLQ1lzsJ8zm1oMe8+rdbTmjDHhXLkHImW/uW+xXyybJ9TI7CXjPDv2eR3E/C7H56ePNfhFApzpeuUZOeENMxasjAl7iHFfRCxmsMESm5ldANaYZczVBEqTp32ij4Th5/ggYZzg58ymGoOJdRnnF1UcE+JsfJNySvutfdIeYtYvls2P7iXjPNNPRx3EM5fj8xF8MG1Fv/t+eTZ2CaYUtHQpqCC8UaWGkPYRYjFXCyfEII4NKE2eGkptctNPwWbmBD9nNtUYTKzLaM0ZY+bljw8Z7mfZb+1b7RfL5gk1MnvJOM/O2bwO4pnL8c0J5wsvTT1SvzwbfsEMX3eF3/BcAAktOWG8f9KlJtifzP7CRTtigzb0TdfaUZt84mdsHCk3Z/hp29RjsOj8Sj0R4+19kWs8jkU/876YozaGYjP0Vj7P2hd90eqgM/el5qzLhUqfl9aOXgfrvHnsZV9TI7Z+uGOe+OKaPXmNvs3FMte25uk5mQjmlpwCDzoms53fSImkJujneDH7ubYA3ZoyN+5ti6mRipxxFds+yxab+V557ng/LZtrgrmRRYvYLl39RcDRF97w4bKwueJHJvvDe20bo33ZtywGke4X7Br75rlRMG1+dC8Z51l+qjXKdjufytwsvjQ/jGt09jKbT2NeHKL6BOiCuYr0hhnGXiMhkVjMs552y2I1cK6f4AhQo6/E8YIZnnytYMa3hPm36c/DmU1Oto96eOAyPj+o0VfieMHc6L/tfC2xJF6lyXEZnx/U6CtximACAMBXBIIJAABOIJgAAOAEggkAAE4eFMz0OavhQ7AzVvd9Z3w5W/3I0nEfdaqcYfMMXsVP8Pnogsk/GJsYm+p4wfzOzWvHDsE8iz1+fnxMWt3j/30v99P1wXTwKBPBZB8HSj89cHazvMolO4MjYl+1cUbeX6WWe/z80JjSHQw/3dQJJvnR/4RO9suaA4/hF8xurPmRteEJlp6KDfHD2tq+ZpxT1qw+Nbt97rfhbt9GbLo4zj9XF3zX/Czn0TjlgOdGyCUn2bRzrflp+bJz32quG5tdT7jqQPbknNF8Fi+en1oX6zzNzzgu1XZWo3l8ad6dy219shHO5vaEn5zLa6y5eb7BjH2CqRWja4LmCZfeTPsP7kr7CO0J3j41Y2NL63qsX0Br0Z7H/dIvVfyzdl78c/2Z2dEXLfbMNNfp62wDv3xXPm/mp/4w5Gvrmtl5kb2CWclxFcGju9l/Tba3+2rNNXcZLLFPMEPRZ4IZG6M2Xd9MEenyE3JDks3Ol74xnGjnNgSRb8/bc6k4dW71MlaGc0w/61im7Df3Lebasin1krB+ZMwZ94XsN34lm9Z5duyLNVqOz0fwoRdB+jqckcUw3k1rjt9bsMYJb5ix6cqYsIcY90XEhizF7+BNpCHtFc5tCHva2N2XSj3vEwRT88XaJ+0hZrm2bOZLzOak9SOKYKZ9ar6M80w/HxHMpfh8BB+4/ZADqguzn+Mz5o7w5buzSzBD4aQxfok3qKn4ZZOaWtpHiA25XPD4tsvtaec2LF8q67yPFkzDF2vfaq4tm0IviWMDimAm8VDzZZy3Xtt+bV2zHp+P4AMXzBBD9xKS8mLNNYIOlvALZvi6a94NzyWWGPbx8aG4sZGl9TZRNIrPwTePnXZf8KmIT/SlXJqUl2jTOm9+GeXYK2POLD8tX+bxted4mPtSctbnUKXPWWtHFUzzvHnsZV9TW7Z+qJEnvrhmf16lM6P9OsbPs+byfrDKRDC3xBf4UysVpZnfSM1AjdzPNcXs5tom6taUuXGvpwnyhYh0v4DWgse/rW8uZxYfYmtM/gta9fOi//Xyp7WNL1Lsk5x1fpLN7KcZu7FvNde2zSQYbH7YP2D7oQsmYZxn+WnUNiLViMZn8e0VTKXunRDm8TYP1hx4BF0wVwkN171hhrHx7zFfCftygnOIF58/ZAD4TI4XzPD0bgUzvukc8/c5nwUE8zOAYILn4njB3Bi/JX9tsSQgmJ8BBBM8F6cIJgAAfEUgmAAA4ASCCQAATiCYAADgBIIJAABOIJgAAOAEggkAAE4gmAAA4ASCCQAATiCYAADgBIIJAABOIJgAAOAEggkAAE4gmAAA4ASCCQAATiCYAADgBIIJAABOIJgAAOAEggkAAE4gmAAA4ASCCQAATj5dMPGvMX4cr5Jr9AR4VgzBvNxvzT+Vu3G7COseY8/lOOUivV3v7xTb+/X+Js1/IY7K39mCBsEEz8pUMOu/CR3/jeijRfOzBfPt+r7ZvGyxvd+vb/KarwIEE4DH2CGYG5fb9qZ5u1+2P+emJsHJb6B1bfd22ry9JeFl8/FyjP9of7C9CTQ/o6GIt3WeRT0zCme9pFZ8a7GPcRM8XpOQ+7qv+trZdeV6775Y81kd7Lys+rla2w01Z4pNWn+7Jl+2B+hlz3cfcs7yOK9zyA9/8fDWtnlZ0c6bzT2QT/CYYIaEpyKGJtiSn4s1FJ1dKl74fMnyOqux6tq6ZnaeSfh2PDUTxcaaR4uP5ldjbwiX0+EjEfIuvwG/XW9svD1fz7W9b7jQHXId7Jyt+bkjnz1qzgybYU/swRgL9Qbdg/l3H3rOon21r43atnlp/bZqNPNlKZ8gsEMw49c52aGYTGCy+MQG4E80NscFKtFfjt2CaZzXjAm09tuLocVHNldib32hs+b+Rfomtykxmblu9xA8F+HPhn+aHStn/VqXn8u1NXJm9SfNJf9rjDsEU/TL6murtkKPMP+sGqlzy/kEmV3/04cXVr18rKhlLDekdTkeEUzlPLsJxvO4fTU+a87pC+3n59rEOqjrg/22Ti7B1PaxtXm8j1WLX80LseLncm2NnFn9yeZqLD7BJOScWX1t+Cnli2C+y+cZc8v5BJl935IzakN1c1SUvgBpzLwcjwimcp7ZBJOGVOOz5jy+0NcspjljXiqxRtyXkjMz18Y+tj4yrtXi13O26Odqba2cGTbDfx8QzAqP1+prw89dQjbmV5xbzifIHC+YQ/FiU8SvW5uhccpavm6bD4XcBIxd4rC+f0Ka5/F1HexylLHQpPFy6PGtxr59vesSVGKepH1djYL9nDMr19a+NFYY8ynXYZ6XVT+rTWdtN2Y5E20eJpjcz87nrq91P+M+uSY9Vl74nCOfuTZCfcEpgknEvaExCF703DBpnBqm2MnFIraCXaiZmoZJTcT2x3HjPAXZ/9pAVnxrsXe+D/M2WUgy+fx2/Ha/8pwZudb3CX4OPsp1sPKy6udKbTPtmdw3xeayYE5yNulr3c/RbpyzzpvVb5JPCKaJIZgAAAA4EEwAAHACwQQAACcQTAAAcALBBAAAJxBMAABwAsEEAAAnEEwAAHACwQQAACcQTAAAcALBBAAAJxBMAABwAsEEAAAXP+//BxeMEZwdml9jAAAAAElFTkSuQmCC;" parent="1" vertex="1">
          <mxGeometry x="890" y="535" width="332" height="100" as="geometry" />
        </mxCell>
        <mxCell id="UnqX31d-6hZHX5KGmmkH-16" value="" style="endArrow=classic;html=1;rounded=0;exitX=0;exitY=0.5;exitDx=0;exitDy=0;entryX=1;entryY=0.5;entryDx=0;entryDy=0;" parent="1" source="UnqX31d-6hZHX5KGmmkH-1" target="UnqX31d-6hZHX5KGmmkH-15" edge="1">
          <mxGeometry width="50" height="50" relative="1" as="geometry">
            <mxPoint x="1527" y="410" as="sourcePoint" />
            <mxPoint x="1270" y="570" as="targetPoint" />
          </mxGeometry>
        </mxCell>
        <mxCell id="UnqX31d-6hZHX5KGmmkH-17" value="" style="endArrow=classic;html=1;rounded=0;entryX=0;entryY=0.75;entryDx=0;entryDy=0;exitX=0.992;exitY=0.847;exitDx=0;exitDy=0;exitPerimeter=0;" parent="1" source="UnqX31d-6hZHX5KGmmkH-15" target="UnqX31d-6hZHX5KGmmkH-1" edge="1">
          <mxGeometry width="50" height="50" relative="1" as="geometry">
            <mxPoint x="1377" y="535" as="sourcePoint" />
            <mxPoint x="1280" y="836" as="targetPoint" />
          </mxGeometry>
        </mxCell>
        <mxCell id="UnqX31d-6hZHX5KGmmkH-18" value="2" style="edgeLabel;html=1;align=center;verticalAlign=middle;resizable=0;points=[];fontSize=28;" parent="1" vertex="1" connectable="0">
          <mxGeometry x="1465.7986304270225" y="410.00318082437195" as="geometry">
            <mxPoint x="-93" y="151" as="offset" />
          </mxGeometry>
        </mxCell>
        <mxCell id="UnqX31d-6hZHX5KGmmkH-19" value="" style="shape=image;verticalLabelPosition=bottom;labelBackgroundColor=default;verticalAlign=top;aspect=fixed;imageAspect=0;image=data:image/png,iVBORw0KGgoAAAANSUhEUgAAATEAAABHCAYAAABvaXAAAAAAAXNSR0IArs4c6QAAAARnQU1BAACxjwv8YQUAAAAJcEhZcwAADsMAAA7DAcdvqGQAAAi6SURBVHhe7Z3LkeM4DIYng9nT1EzVVEewSextI9iqjsbXvW0ADsFR+N45aQmAlEDwIYl224L7P3w1Fik+AAI/ZY3c+vb29jYdkdPlY7qe36t1AACQgIgBAFxzWBEDAIAtQMQAAK6BiAEAXAMRAwC45qkihpv3AHjhNF0+PqaP63l6r9YLozl9ixY0RCxOWHM5Vc67jT0Th+B55TGx9Hq8T+er8tmKeNyDfo45FbHLKR1Hh945+CBiX4HHxNJrYX30GJ/dI8cOLGKB0yXsCJfpFD6nAd/P13mnWM41O2+m3GZ3CcjEpVyPx32HRdNjZMwL2hsPPJ9bYsnEi01i7mepX5LAeUwo/8xl7+fp+nENn9u5IsfGZ7PtVH6dzu/aNzLGWo5l9XYN7HiBZR1ac9nZrhgzZ1jEdOdsZJhgGryYTDyP26kJLeor57UXRp+7nLM2HjgCY7FEwZ7Hi1lr7oOSUvVbO89hTNjYF8SPyZ5WrryfL8on2hfRD7PPrJ9aObZQm1e+Rnkf7bn02+V15TwtG0VMjrNBtKryLnHp7CChLv6r65aJy0R3i1hnvKwMPJHBWOLzzDrSelc3S3OO85jIkzghftuSK5qlbjDHFMU43ZxeyhJz+2679rovV3E5m2/s64k1J1obLAVld+I3iFhjPC8B+/oMxhKvY96OYRGTPnW8zLxATJBPyqTdKGI1v3HdE0SsNZdeu1obovDHwvavk4qmsbVdMJb1Db5BxBrjZWXgiQzGUiVeFsp4mXmFmKjNN/qjnyvia+3Ppe7RItaZS69dd93r3FfEiomL47RRqU82aD5XnxfqeRGD+iqH8fmN3ak+nj4PPI/RWJK1zJJGIfFTC/ZXiIm6DeKLXq4YX7Mg5O16IlbPsQV7vh1P1iTNrTeXXrv+ute4s4gR0pYdS+jJJIfHcpr83E8ykgiOPBUOi8ap9lLeGQ8cgFtiyax5QJ9Lbet1LxATOh+sDZ1cSYIgXKbzXLcuYvUcK9dgqQttOjndnku/3dq6WxoiBoAP+iLoHxbqlPigCkQMOIZ27NpjFq8EvmmsAREDALgGIgYAcA1EDIAH8/Pn39VyMAZEDIAH8uPHP9O3b9P0xx//VuvBfiBiADyQ37//nL5//2/69euvaj3YD0QMAOAaiBgAwDUQMQCAayBiAADXQMQAAK6BiAEAXNMWMfsrev1nT1CHOtSh7pa6O4IrMQCAayBiAADXQMQAAK6BiAEAXAMRAwC4BiIGAHANRAwA4BqIGADANRAxAIBrIGIAANdAxMBBoFeTfc7PUsBr0xex9NunzqvNAehTeYN09u5E817FQOtt4Rnmd3nFm61Vna1vU3sD9pY6T0R/Fznt1/auiMmrxU/BgFd/QSn4PCQBFhGRJJK3dqvP9Fr7zclBfaqY5FfiL8f5K/G3k79tW8+zX+cG9tNlOpPIGxHzbHtHxJbgs0FBRtGx3vFSkPbqkgNS+eJIo/SRbbsnODZWxOSY44mvpqL4hAQbTwyJqzTGkIjpucQyjuEQo706P99Qgo/ifIu5O7e9LWI8+XiPghRcTZqVmYQmqrM2qlWXBS/3E4VrVnjFrl0ZHBsjYhxX6TjGQEiSy2Xs6km4g4iZGJerFprbpVvn8R5eIULObW+KGBuaXUIuasxCpQ1TgteqE+ON4VooZ2gsn8EBaiShSuS7OsGxFutHhMzGnO6P2bIhpmSNIiuxKnHfq7O2eKApYk5tb4iY2T0DFCgpwPRnS7MuOUOXVUSM2utxgXd0LMnnMj6oPCTFKSbKjqtwEaw8hnKiiK71SfE5J2ksi/HZq/O42VZFzLHtdRHjSdLEDdHwYRGzhtsyOsbXyBfDbIi1OFBX30WCdRABW78i4PPW4opj3vRFcw1z6dVtmefRKHzs3Pa6iNUmqYwZEjEOVF1ndmXu/zjqDu6FETG77gStPcfbxqumwFYBk7gyV/exLI/xOPZcpufZq0vt/VBuFL5tr4pYXYiWyY+JGCFCNl/ZzcEaHaXrsnrgF1nbTERokwwCJP+OrLmJo0RItDKWKkJXFTEib5vHca/OA40cM+KUyj3Z3ryxD8DDIDHDhgUGgYiBp0Nfb/xd2YCjABEDALgGIgYAcA1EDADgGogYAMA1EDEAgGs+ScTiczzFcziJ+NyJrp+fGUpPbl/WH2QEL8Ty1H69HoA6TRGTJ6KXB9z2PeS2X8Rm0TJiVrYFvqg8ZJk9E1Y+uJo9GNulFWdmzM3PoPXajfZ5INJDvpHcz35t74uYx4UCB0MSYEkYER7ZENXnvQ+88ma3/w/89ei1G+3zONA6qF8vsP+WY8+2D4pYW5mzK7isvWlDZMFn6rM6cVy9DhwbK2JyzEnAVwYxkUJSbU+MEA8xBjjedDzoPmNZcU6NTrvhPg+N5BSvi3Pbh0QsV2YVlOqcXnvCOiK/B6b7tP3Lca9vcCRkvWYR46RIx3EtQ5KM/lHEIqHoCsMe8+a3cnui0264z0OjRMy57bvuiUngkfHGAGtoYK+IVeupPTvNjMeJ4DmAvhJJqBL5rk7oWNsrZEUcpViMYimxQzFbjpvRaTfc54HhC5HkN+e2778Sm40xJIdEmu0jRfDV+k0iZvqGiHlCX4nJ51KoqDwkxegfRdTxQfHC8aPiY0u8dNoN93lQ2Gd67s5tHxSxdQP2iRgpex7cc3t2ohmvVgYOihaxQHXtaP2lLI+LdYrzOT7NVQKNudZnp91wnweE/WVtcW77wD2x+PVgZbdst1f1syNExOZAZ8elMazAtXZzcEyMiNXWj9abY2FbbGkKEUt9zGWN8Si+Nrfb0KcDqgLG+LZ96Mb+bBgFQiQzWJUzlX5s8ImDU5v4X+dzOxGyXn/gqEhMLCIWoJ08JJP8q9Z189o24swkWiovEq4qYkSv3Uqfh8fkUGKTz45te1PEPpu+SIIvBYkZYgEM8iQRs18RwVeGNjTEAhjlcSKWLuET2HkBAHfgaV8nAQDgdt6m/wFFOjxrq3uV2gAAAABJRU5ErkJggg==;" parent="1" vertex="1">
          <mxGeometry x="2020" y="279" width="305" height="71" as="geometry" />
        </mxCell>
        <mxCell id="UnqX31d-6hZHX5KGmmkH-21" value="" style="endArrow=classic;html=1;rounded=0;entryX=0;entryY=0.25;entryDx=0;entryDy=0;exitX=1;exitY=0;exitDx=0;exitDy=0;" parent="1" source="UnqX31d-6hZHX5KGmmkH-1" target="UnqX31d-6hZHX5KGmmkH-19" edge="1">
          <mxGeometry width="50" height="50" relative="1" as="geometry">
            <mxPoint x="1887" y="279" as="sourcePoint" />
            <mxPoint x="1790" y="580" as="targetPoint" />
          </mxGeometry>
        </mxCell>
        <mxCell id="UnqX31d-6hZHX5KGmmkH-22" value="" style="endArrow=classic;html=1;rounded=0;entryX=1;entryY=0.25;entryDx=0;entryDy=0;exitX=0;exitY=0.75;exitDx=0;exitDy=0;" parent="1" source="UnqX31d-6hZHX5KGmmkH-19" target="UnqX31d-6hZHX5KGmmkH-1" edge="1">
          <mxGeometry width="50" height="50" relative="1" as="geometry">
            <mxPoint x="1977" y="320" as="sourcePoint" />
            <mxPoint x="1880" y="621" as="targetPoint" />
          </mxGeometry>
        </mxCell>
        <mxCell id="UnqX31d-6hZHX5KGmmkH-23" value="3" style="edgeLabel;html=1;align=center;verticalAlign=middle;resizable=0;points=[];fontSize=28;" parent="1" vertex="1" connectable="0">
          <mxGeometry x="1465.7986304270225" y="421.86318082437197" as="geometry">
            <mxPoint x="410" y="-31" as="offset" />
          </mxGeometry>
        </mxCell>
        <mxCell id="UnqX31d-6hZHX5KGmmkH-24" value="" style="shape=image;verticalLabelPosition=bottom;labelBackgroundColor=default;verticalAlign=top;aspect=fixed;imageAspect=0;image=data:image/png,iVBORw0KGgoAAAANSUhEUgAAAnUAAAD3CAYAAAB7EKKuAAAAAXNSR0IArs4c6QAAAARnQU1BAACxjwv8YQUAAAAJcEhZcwAADsMAAA7DAcdvqGQAADPLSURBVHhe7b07jiux86j3X8XFNWD89uI1GDAwcOLIib2Am2khihxrCY4mP6nXIzdfzVexyKbUGon6gg9nxEe9WCRLrTma//rPf/5zBwAAAIDPhqIOAAAAYAEo6gAAAAAWgKIOAAAAYAEo6gAAAAAWgKIOAAAAYAEo6gAAAAAWgKIOAAAAYAEo6gAAAAAWgKIOAAAAYAEo6gAAAAAW4AlF3eV++/fv/u/3ev8R+1vMzns/LrfNj82X20XufyeMrb/XH7HvnfgUO8/gdb7/3K+/a+zBl3K5EbNnYWJp7gHL7/36E/qeez/8XH+jnttFGLPOffTemDjf7hexD56BXtRlG85RXzbPL+o+6UK3Bd0HHQQrFnWflC8jvM4firrD/Fzvv1nx8VesUIQ4H+Q3w+f4Z4s7iro/xa7B0+PM+gUGirqkqrYH2vkXzmqX9DtBUff+kP/viiuC/3xt/Ll8PeVyfCH2PnntU5t2UQev5Kln3Cr74UkcK+qKNv2Rtq+cM9w73Na8rD1lH+OfLFTtPQpbhhbe6DL2pnNDLJwd6TvM/bAw8bldvZ3b/IsrhKPOtg8h0dM4RB0zPhgKfRtxMz07Lo/40LKzHet+vjw7Zm1bxHnJ2uq09Al9mcxyXrpXW/NqXeo6DMdsw54NcW43z5S94uyYzbO2D/q8DsZeMR6tPHN2tPNlhk2Xl29lifZI6PGcj1l7XpfkLknbUz11vs/5EJDir+tL5HnOzbNH4xnnvuP+22kW9F7f8B7Zxnv51pYj8VqU40Wd8PGDtFHMou9t/glfmdTSPENIGKk9jneJI43LKcf5hOsmTUjM4Gsqx/2c+rP74jeW6bP22viZRHVyNB/c+NgfkrQct9vW9aHU516nPjwel1zHrA89O8VYV2PjmJ4+jVlb8nml/jZtfbrMMg4po7aE9QkH4c91e8e77+1xH1ze5+eCo5ThXlvblL2yjzuYZ+5wb/ugzXPj25i5dSwU//zPWu4+whHbe/GcjdlMvtj5Rl5JEZc6VqUPub4RW7T4a30WWwTF/jPybCaelg/ZfxHXnu4Nx9GiLjIa49U5XtQlBUpoqzeDW5i4YPLCtjaRSZg6CYzMwhZjX28RJR+GHvvXSRftVfoSm6IfYaPoPtiNkvrj7Zz2QRiz2/TEuDzqg2qnug7l2DjmlJiptkzmp6pPl2l1i/6M22JlKDaWsZZxcanWwKCte2JT7nO8VI7mWR2L3Icj83IEewyafwO5+wi9tcvR45mPnY/ZIf+k2CXUso7FU+o7Oj4i7KmCdP58nuXoNgVcXD5h/6VEnXn7LFZPatOXctKTOpcQe5swx3Bosa2MTWZJbxGTRNzblASMaAeI0qdtlI4PzSSf9UEYs+t4YlzSPJnxQbVTXYdybBxzSsw0W+y89tqG8RWavgGZZmxo32NwwBZrf9ouzRX2aI7J7yInAtq6J30xxp1LxcdKXPOA4oM6T6Xho+bfQO42qXyo87ZaOxU9ntMxU+Z1SfUL1LHqxHPAFi3+Wp+JQbX2szHTmIrn5+y/FC3eM1h5w/thXQ4XdTZwUluxOGbR00WVEqC1qGLC+ERsHQBNpINDaqvQDhClT9soHR+aG2XWB0HfruOJcZF9TvrDmIY+1c7eQZ6NjWOm/Zu1ZTY/NX2HZLqD/eg8a/9+ECYy0n5hj+YIORHQ1t38e/RS6eVZx4f2vB4NHzX/BnL3EfK169GO53zMZvPFI8UuoZalxXPMFs2+Zp+xs2o/I89m49nITYOWn379X7n/Uub3oozVM7wf1uVYUWdf18lTLdrgpdJabHlxXJL1E7ykTDInp59M2gFSyPBxsX0DG6Xlw/hGGfXBzQs+WPt3Oc+KSy5nzgfNzsKuNNZetpwvs/7N2uL6Wmvbpq9vTGZq2/i8PHa5LW4fH5Aj7nllHQb2ymyetXxoz+sjz1X8y37e+oTcfQQ571to8ZyNmT6vi43Hc4u6ni21zE6fldPO6+Mx05iPp7X9A/ZfpF5Lh5s/4nOJjcHwfliXgaJuC/BO+hGqW5S8fyNJ6rLPJYE+T5S999Vz5cQq8YkSGEqYOumyTR+S1bAl0iX0KRvFxa7tg34QzPiwka7hNsf4EHXMx2Wfs5HaPO2DZmcr1rvcVr48J2aZT6otk/mprlFLZt2e+zdmS3kQ2tf7nJv7moDBuOVzU32NdVD2Ss9+Lc80H/T87GDXqX1x7jrTeHVz9yjCunvZ+mWmx3M2Zo/kixzPhn9WputrncltW/oyj/edk2ePxDOfm+p/n/23Y/eFspcGfW6uUXc/rIte1M0iLZhtq3+vDj4Nt4nqd1jr8lAh8ObYA3j4AH0l75hnzqbPzIXv27fwCOfmy8pn6l9zTlEnvANz1btUmcNnQVG3Du5d8Xv69qZ59rFvTinq4Ajn5YutBb74SdrZnFPUbZiLMH8kSkG3BhR1H036caDhLZ/SGd44z5KPrcT+t4SiDo5wVr6YN5LUAmdyWlEHAAAAAK+Dog4AAABgASjqAAAAABaAog4AAABgASjqHsJ/p07nl6Znf9H+1b+g//f/IaAXT/fLu1m//Z/W5pf+3S/f5n9M+jm8Li6Cf1+Nz4eNZf6jCgDAiQwUdf6i8YfrKy6cz/nfhhR1JeUXYBrGZR4v6vYiriju6rnzUNT9NT4vDv1P3VYuFefZ2/7vXwCA43SKOn8A7gdf+focPqeoG+PrirrFLsrV8vEjOfL9cP57Mu032RdFnVnLmJ+u8GNtAWAV9KJO+BLhcLiGAi/9Hpv8Qi/eEe+Hq2k3h7N/J20JH53VT3ksXZlC39ATG82Htp37uNBeFTGlLenFccQHZV6ms5w3+rRqVl8bvahry2zHs7ZRjVnWl65d2acxG5dyXroOrXm1rnH/OuxPLx3Rh0ZczPjb1evbcv/iv9Nu63d2tPdDKHzTdYz7qu2DPi/F6e1/b9Y2zsu3MtN4CYVhNQYA4INRizp74FUXtDtcw0HdKury321yY92lEg74cLimfW5868lIW2bL1h6aD3078/GxLX8akPuj+aDNy/ue4fu8Pg3NlhGZPV9sf3IJ9/IsynevNdmB2bg86rth3L84R8QWdHkB41Di4otAsx+svbZoM/s9/VuQUWbqkxsfX6d+dHO+Mc+N90z8JYdKlvGvfG10D78JAgB4b9SiLr+IAmNFXUns688zekcurnSe/fnw4azZMuZf1WYvn9wOzZ99vjrPxLzwLbmgpnx/QN/eJuBs8Re1x8VwTKYU4xTbr9ixz7cXdqFP8LnilHUYj+ewf0JfJC+cMpS4pDblPstP5svxmd1KrFMfuvPsa5dHoj8KVSyDvbtMo8f5d6RYBAB4V/pFXXooWswhOFDUJYfxju3rF0vxQoljLE2ZcV5oH7sANFv6dopt5aW0kfnT8kGbJ80xJGtz2PcH9bWQYmQZlNmc77H96RxJrpkvFU2CzxUPxkVch0HfDcP+JXNq3B7NCrCAEpepos7HKo5P+gOKD+o8g5krxGmEKpbWXqM/WV/vu5oTAAAfwuTv1G0XgFr0uEslPaxj32xRp8lMx8ljZV5d1Ck+aPMOXTyDvj9NX05zTQZlNud7bP9+USvxlHJXais5Yx0OzBv2z7+WEQqwgBIX++/Roq4an/RbdB/a8x4nj+WGXYfiqVziw94GAPCh6EVddSC7g90dyO7nvc9eDKHPzdsvAHuY5vO0Yqk6jC2azHScobCtieZD3065LbfT9m+vnQ7NB22es0X2tWTU92fpy5Fi5BiT2Z6f9O+50Y9njMOr45LqG5837l+cI+HslgpJJS6HirpcTq+oa/nQK+qcH3Mfj+axNPh12NvSNYrzAAA+lU5RtxEO4UB6oaR920F5MYeo7w+XoePmvl7A9pWXgx+bXVT+8A3zB2XGvo1MnkLTB81OQZ8h6AzFoW8z88LF0fZBnyfpdH0P+D6lr5BREGMk9R/wwSDIsfKTi1qNpy8oNHkip6zDWDyP+aeTz031NeIyUNTJ8vTiTPPh+UVdI5f2mOb9mm4AgE+jX9R5zOE7epkAnIW95BfOw/f1zxVD6ZscAAB4L4aLuumnHgBPw+Xguk9X3tk/ijoAgHfnQFEH8AdoH/+vwMf4R1EHAPDuUNQBAAAALABFHQAAAMACUNQBAAAALABFHQAAAMACPLWoq79zyv+P2eR7t8aYnfc4ve/N+kzG4jnr+6tj9vdr1Iun/y60tH//7jv3hcD5H7n/do7u9/X/00b23X5v/5+Djp/Xf+efsXX0r8IAfB5jRV34H3qHi4Ljm90xO+9xnlcwtHzwF77pM7zkQBuL5zcVddml4hmX2YtnXdTtRVxR3NVzv5Gj+/3FRV36ZdQZY2v4SL5+xvcyzp/Xz/OvOFcNmVxvY8J4/rT8087y2XP+DJnwTQwVdWbj/V4vW0Lp3+z+6sv9DJ7ig70E/DfnFweBkR83ozss3iVms76/et2foe8zLkuQcZfb65/UOb1Hc++RfF09T59d1MWcSM/W5GdzNh/RN3mWa30aZ8iE72KgqIubxRV3aRIV7xySJLObNbRLm6h49zs2zyXy3r9vMmOHKTjT/vRddGFntjnbPrT1aWxz/DjrSzrHPvHMC+NqjEhcg9Bm59n46L7r8dR8n41Z0ZfpLOeNPq2a1dcmxk/qb8tsx7O2UY1Z1jeTZ4YzZG409qamLxQuaXxCvmp9ejxbee3suF3knH/IdxWnN8YjIOvLfEvZ/dTWz2FlNPO0RItZ6Jf1aWtkmTqvH/HP+3DI99Rm99ramZ67mx/1+rXYbEjXMrVfOcunz/kzZMLX0S/qbDL5g8Fs7CSJ8ncO8WDY527YxCs3pj0g8gQtqeclmzR57caEwyPIzMfmv7+U97V90PQFWTrVpiviFw/KXnHjdLeLurbv9fjYpq3fXMzKvnyemAsDzOrT0GwZkdnzxfYna92OZynfvdZkB86Qqe3Nbk4kl3Dqv9bnZPm2zD5vs5jX/b4p37uUsqW2Wl+arylaPOMYPc9yvO5k/dJcnl2/ufP6Uf8eLOrsvRVex7jcbuWDiTGyeBiUs1zrU8/5M2TC19Et6vJNZzaa39xpseeRDq9608qbu6SaZ5O4SGBvQ7WhN9qHRdKn+aDoG91EVo90EPgDx8lPYprMzdH8G/O9ahtcv8BQzKwvRXySw8jKOBA/ywP69jYBZ4tZg4iL4ZhMKcYptl+xY5//hDwLPC5zbG8G0hiYNcn8TfRpfZIsx2TOPzGeNUJ8BvRp+yqljoHc1qaOi5S7gVR2a41Gc2LEzsf903B2xv1cn6lWl+8fzfGAnZvGJ8TVxsnINOvtznKtTz3nz5AJX0enqKsPif2A8ps+Pcykw6vetCYRi4NHoJonHU7eBsnObP6+ERJMn+aDom/0chAPAqs/kTEkU/Ov43urTfN97z8YM2mOIYmBGRvay1wReVBfCylGlkGZzfke25/OkeSa+Y/k2dNldvZmS9/Wl+VOgdYXqOM5mfNP2LdtnN7MlwF9Tf+VeAZ6eZZTx8WdOd6WqfWbPK8NT/dPI/VdWKd9zFYEXbxdB/RaO9N1tnE1PiV55ddd61Nz8AyZ8HXoRZ20KQ1bcksJJR0M9aYVDh6Bal56OBVtksw43x1KqV17n+aDom90E1UHgdVXvLMyMstLoULzT+tT2tT1m4yZ0Nem1iHyNH05UowsgzKb8z22f19XJZ7TeXaGTG1vKvq2n6W9H9D6AnU8J3N+2vcRnN7MlwF9sv96PLW2NsL6GVvMeT29flpORGo7z/BPo7BTXHNjk2uzervnbqQab88J+SzX+lR9Z8iEr0Mv6qSk8ckVNm3YRDbpi028t0sbuXPI1vPKQyI9YOuDJ87P7XT2b4Wp0Jf7oOnzsjpYeVn8nIzYNiqzGGfWZfdB811r6/t+PGbev0K3zKjvz9KXI8XIMSazPT/p39e5H88Yh7m4PEdmiK+0NzV9b1TUjfgebD98IUpx7OvLcyGf14pnoI6LRhmX1Lb59bM2TJ7X8/65+fO+N9bdroPrG5ctraGXsbel+rQ+P1/MwQdlAmyoRZ280ZNkCsWF33wm8bMEDH3JmCDHHRSxb2ye3+hVu5sXN3R+WOS6bu6/p4e5TR80fRoNH4rNGNrr+DYIh4CXddl90HzvxFPxfT5mtc7m2gZ5Pab0FTIKYoyk/gM+GAQ5Vn5yYKvxnMqzc2Qacrkxnpq+uaJOi6fr0/K6td+7vosX6ghOb+1LL9aFn76/HU8tLqncknpeauvs+hnyuWGsbudj/vmYdn0OOJlpTrhzw/8+mqqrRcPOobNc69to5uADMgE2uv9RAgCOkxcZAK/AXfpZYQMRU9yxJ2FxKOoAno57ysA7aXgtFHUa5o0WexJWh6IO4BmkH48beCIAL4eiDuDboagDAAAAWACKOgAAAIAFoKgDAAAAWACKOgAAAIAFoKh7Mdl3N4m/TO+/n+nwd2iN0fs+qu9iLNazMSPW78Hfr0Mvz/z3j6X9+3erhb+AcMv/mgAAgEC3qDMH4l6EeEYPyBUutbN8aH+P2QpFXcsH3y7mUf7Fmq/536MUdRJn2P2XsXiG7vyLdB3jMo8XdXsRVxR39VwAgMhQUTd7IH7qpZZylg9/9eW0p6+JvYT8t8dnl5i7uKJud9GFr18wdsV4uL53yZ3ZmH1q/p9h91/G4hm6/2q/AgAc4cGirni6sn9UUL+rtRSX9t4uXP7pPKfftaffwZQftMW84QO4mOdt0X04aIvwDl26JDKdWV8hzxP1a/rquXE9tXVI+odjuY1P45fK88Ve+rRhj4H9jrf8j1VX80W0dTB9RmbqY9TfjrVBi9lsrIs+dX3HnsqEvZn60syJAX1ZTFL2ucW83XfTLsf6sMwnxKWeN7oObWJeSf1tme08q21Ucynr6+1bAPhWHirq9IOuNdcdVtUh6+WYOanMKMONaxVS+bxSR5v8d1XqeZoPLVt6MsvxJb24ln/uRtPXi2e0y73O9R4t6iLWh/SyMTaXl49vq/psAbjp7V7i2jp4f/ZisfS3HB/b2jGbjXXZl8/rrncDKzNZnzTmj+hL7U5p++5+1mLdknlaXJJ5qW5Nn4Zmy4jMni/p2rnXeqyjfPdakw0A38PU79SFS9QeRMrFmx6mO/bCLubYJzW3/d+0L8pwh5d8gZvio5ApFREDlIev6INqSzqu3Xd0fETwtWCfr8VTWQdN9ijWhiz+rkCMMfMF4zZmXyur3+SYscH050/varR1GFujqk3NwdgWGIp1Jz+tjIm4G/lZjL0Nj+rT/E2JsevHWpZ5QlweWIe9TcDZEs/AeA6OySzjUWL7FTv2+UZ2qU/wGQC+k4d/p85eLP6QK8eJc6VDNFxG6oGsXBx2Xn7gWgYOa3Fu9zLqXGIdmdX4Aq3P2JPqtbT0afFU1uEZl4P1oZRvL6Rg46bHvDZ27u2J7iFb/qCom4m1NMeQxMeMDe11vslkdqU8qO+Q3MFYizLPiMuD69BCyh3LoMzmfI/tT+e0Yn3yvgWAz+aJ/1HCvGPNx4pz7QVeHEC+TT2Qu0XdzKFW2zx0GamXWF9mq63bF4qgrF3Rp8VTWYfjcayxNnQuSzPG2mLtLJ7KGVu6l+2ri7rJWB/Kz1pHCzk3Nx7UJ8vV8vqRou7JcXnaOuRIuWMZlNmc77H9e74rsT553wLAZ/PEos4d7NVBVF3M5YGVznN94XKw8/exhXx7kPl3r75POzRlcn3ugM7lyD5otvRlGvZDOmlT+5qXh6ZPi6fr230Q1i+MadmpIcet1e/Xr3id2yKhrYPr2+OyIcW1buvH7HisvX9DcRz1Xdubj+nL1yag+d6PtSzzjLg8ax1ySn8iYzLb85P+PT79PItxEOISxlfxBoDVmfqduuyATPuqQ6sYs/e7g0mcFy5m355dXOGwMmwH1iU7KGt7soOuQTj0HTf3VRyZHw0fFFvaMoWYGR7q6/hQxNOMjXFR1iHtr9pbNOzc4tOMY2PuyNpZmuvg5MmFhh5PLWbzsa51uj7BliCvg/6G6xF9xRjf3/bdjdeKupbMx+xsMLUOhYyC2p+UAz4YBDlWflKEtWNt+jv7lqIO4GvpFnV/zfiTQgCAz0QvGgEAxqCoAwD4U8qPVAEA5qCoAwB4NemvDUgfoQIATPD2RR0AAAAA9KGoAwAAAFgAijoAAACABaCoAwAAAFgAijoAAACABaCoAwAAAFgAijoAAACABaCoAwAAAFgAijoAAACABaCoAwAAAFgAijoAAACABaCoAwAAAFgAijoAAACABaCoAwAAAFgAijoAAACABaCoAwAAAFgAijoAAACABaCoAwAAAFgAijoAAACABaCoAwAAAFgAijoAAACABXhCUXe53/79u//7vd5/xP6/4XL7d/+9/oh978Tn2vl+625s/LfZdLvI/cd4z7wGAABo0S/qLrfOxTZ3+Z1dzKxY1P2lT7Xu9yp6jH3PtYWiDgAAPosnFHVznF2g/GUBdIQjdv6lT58STwAAgG/loaLu5/prP+6y3C5F/8/9+uv7LLf7pZyTss8v5g0XlKW+tAgp+ipbJcyc3/v1xz+xsTgfTH8oclJ/4sd+6ZyNzIeWna49/ejQyt5s7cfsiL7og07Lzrl1d+3teLZ90Oc1bTF5W/qatRV2JnPn/NPo+V7ITNZPz7P2vC42FnFu3CuNdTDjb1evb/Plcr3/+v6ef4/54GVW6wAAACVPeVJnD+vi0JXaUlpPfn6ut+1yCK/dgS+NKzHyUn2p/LxvVGa4bMxl5dpSOfbn5LKx/u4XXCrfy0nniXa6cVJRV4+NY3r6euvQom1nHHNs3b1dYjw1H8p55VhHrdcVA6145v6NytT80yh9yPVrOW/HCXlm9uPsXnEFXbQlUsrwdhvdvgg08XQ2maLNxPg3jmv495gPFHUAAKOcW9QpTzHMQT9yAQ1doj/mqUGuK8o3l0Jhx4BP4YJJi4J0nr2oUhneBnf5FfpCn2pnra/0XYyZos+09dZBRLUzth1b93Y81ZgNxGWszcgJRcdYThzzT0PPpXxsrreVZ5J+yd4aZ4u497R1SOyNuZAXdUf3yrwPAAAgcVpRZ7CHuXmXvVFeIlKRYLEHfpyXvsNvIlwSu3xJnqHjU/Oi8nqa9kvxChejZqegr4yrqFPRF/SYecFv0eYS1c7Ydmzd2/FUYzYQl1Zb5of5Oeiw7dHGncKGmbyW0XNJtMfrFdc8oMxr4558ZbYEtHVI+qJNnaLO+/d8HwAAQOLUoi7iLpL0YJcP+npcX/aGv3jEIkToG6NxUVUXW9IfxpT6fJtq50DxIupU9NU+1/EVUe2MbcfWvR1PNWYDcWm1pXNN/27/YE4c80/qDyi+d3K+mWeze0WyJaCtg7f3UFHX2yvTPgAAgMSLijp36FeHdyXXHfL75WAv3+NPH6zs/bJwuo9fFOVFlV9A4xdV6nvfzn2evUxzu7WYyfrScb2+FM3OOM62D6+7+1mOp+ZDOU/W27LFtP9eL5uMtFhxMns5ccw/qT/Q933vK3K+l2eteRrWL7GoVdbhUFGXy3nMBzdmxC8AgG9nrKgzh2rKdrjvF2PZZw9foa86lIsxvt9dOKH9dr92L1ZPauc23l3m+eUU5bYumRR9TvuiMviLKJDar9kZLjXDFuNL5bscs7a+kXVo0LRTkOnH6Pr0ePZ8iAVDWmxpthRyszZDyx5NptBXyZVo6XL9Ws5reabN65HPTXU01mGgqJPlPepDa/0AAKCkX9R9Le6iSosJeIRvjufqvrNXAADeAYq6JlxUz4WijqIOAADOhKKuCRfVc6Goo6gDAIAzoagDAAAAWACKOgAAAIAFoKgDAAAAWACKOgAAAIAFeIuiTv/ONwB4H/z3xlVfgp0zu6c5CwAA5ukUdcUXkZ70JaBHDnIO/U/lNbm0Hu5/lu4x6xRTz0DfYxR1AADvylBRF7+qwF8wT76MKeq+gdfk0lqUMXpNzJ6xxyjqAABez8GibsP++Sj3dyPDAZz+qZ84tngyk72zL54+bLiD3LWn+qzs7RIr/6zRzn7Bafrg73kkl4p8KYua9E+abcSi4MNzIonP3mb/lJz8R/TDXnGvi5jtvpv23/v1J42N09HbY1l/uQalvo24Di1b/nP/7//9f4zPq3QCAEDKw0VdetjaQ387sMNhXB3OfpydlxzQ8d25G9e+qNKxcUxPH7wDc7lkLv88X4q1tjJMkZLIlcZ9YE6Uue9wcQz+tPbKz/WWxCSNhY/DHrMyTq09FpHsytcol9Gy5b/9t//t/l//db//3//7/yvOU9cdAAAqDhZ17nV26KZPP+xThJvyhGHr8/+mffEgdwf34aJO0Ze1wR8ymUt2XLGOZr3FNw/FmA/PibyoCbi4jeyVlNg3uccSKj3qno5tgTD/f/5f/5/7//F//n/3/+t/+l/2vjivve57jgAAQMbh/yiRHtTNg1s6fMMlrV4ADxR1DX2fcoGvz2Qu2XXM51lsUedkpvmys0BOmJjURcxgUSfFzfb9QVHXskWbJ80xVPEAAIDA8Y9fE5qHv/SUxLfpF8ADRV1DX9YGf8hkLgn5EqnzZWeFnJDs9fHQ94qLdRrP2Pfqok6xRZunrjsAAEicU9RVB7m7SNJDPsi0B/w+Nh239dtLbXt3nlwgdnzj6YWsLx0Hf8dsLrm1zIqIBJc/0uW/Qk7IPrhYaHuliLUtkPJ5WlEn77FIOb7U59Yk2KbZos3T1x0AAGpOKuoMbq69aAzp4RwuIN9uDvNdTjj0DdvFcqkuEH/YJ/Ndu6IP3oBHcqlY8410rJkr9y2QE+l+KH1Q9kookBy3+3Xv6xd18h6r1yD2bXOUPd22RZ/XW3cAAMjpFHUAn4FeFH4+tnANhRAAAIAARR0sgHmiI32tyUrwJBoAAHQo6gAAAAAWgKIOAAAAYAEo6gAAAAAWgKIOAAAAYAEo6gAAAAAWgKIOAAAAYAEo6gAAAAAWgKIOAAAAYAEo6gAAAAAWgKIOAAAAYAEo6gAAAAAWoF/U/Vzvv+nfnPx3u1/oo48++p7RBwAAT4MndQAAAAALQFEHAAAAsAAUdQAAAAALQFEHAAAAsAAUdQAAAAALQFEHAAAAsAAUdQAAAAALQFEHAAAAsAAUdQAAAAALQFEHAAAAsAAUdfDlXO43/mwVAAAswEBR93O//iZ/t/F2EcY8mfC3In+v9x+pH6BLkbdV7ppiLu+/XdL5DYq/Y5rO+bn+ZvLK/jbaHvuD/XcKPt7Vnv4G3wEAXkO3qLvc0sPUHcy/159szLMxl+Pv9bId6L/36488BkDHFQSxqEpzN/n5cjtQLBiZSU6auf/ia5e3x/eGtsf+Yv89HRun2/1qit6iqFvedwCAF6IXdfapRF5Y2acRpz5Bi5dxeUmaQ968Tp+IhEtb6wsXQmiP9hdPAjxjT1fgvSmLOvfa5lOa11vBMV8ouLwKOqaKOmWP/c3+ezZbjLy9le3L+w4A8Fr0os68w04PUfuO2xQ+J/4Okj3MvfxCv33nbvT7d+/pId/qyy5zK8cXcvsTgASjT2qHD6Qo6mxehdc+B7ai4Xabe7rmeEJRp+wxre8TfwewKsq+yHcAgFcwVtT5C9EdqOYiy99BPxN78GcfuURdtnBLD/qkAGz1ucuguAjSwnHH6OLCWIdQuAXqnLW55vtnCrsy51J5lpE3CMoe+4v9dybNou4LfAcAeAX9om4/UH2bWBA9i+Lpyoa5OMOFm/5c0uwLl0PaJvhg5qd64dNJc8n9XOeHad+KhIsvHA48pXUFnLYPfFHZk6nssdfvv3MRi7ov8R0A4BUc/p06sUh6FlafOcgLvL7poq68CMo285qPXRejeIMg5UHydLYqOBRcQdd/YmTH9fJK2WMv338nU8X4i3wHAHgFelEXnjbsB2nriceTkA7t5HCfKursxZ32FT5Y+bz7X4+iqJNy16y9zTef5wOF/WhB5/KqePrr2/Ic97rFPab1hfmfQ104f4/vAACvoFPUGfzh6p+anXmoyoVZPMznijqDK+z2J3/75Z37VvfD5+LWNiuqzJuGrSBz/86seZFHga3wqHNJKPzEos6g7TGt7xNo7LGiWAvta/kOAPBaBoo6gEUxxR0FPAAALAJFHXwt5uNAnv4AAMAqUNQBAAAALABFHQAAAMACUNQBAAAALABFHQAAAMACUNQBAAAALMBiRZ3/HrHqe8AC/nuv0v79O8vCXxa49b9YFhYi/lUJuR8AAOAzGCzqesXS83Df2O++bPT4l44eL+r2Iq4o7uq58FkIX3qbfSdd/UXC2RcVq7TyrNA5/B142rxZme9GK2b5OmhfPsx3CgIA6PSLOlvsbIVP9Sd+zsEWdRze8DCuIIiFmiseXNGQ/Hz0C4iV/WD+qkmUleqLYyS0ebMy34pmzNwaRX+cf2HNlvAdAOCFdIq67SD1h3D9dxvPQS/q2u/csyd82fxijkG4WOQ+d5HIffDelEVdUkDYP9fl/4zXVnCMFwrKfkhl+rahPaPMm5b5Vigx88Ve+mTcjjH7dwnfAQBey/Dv1L3qQN0PdaEvf+eeXNLJGG2+ofQj/x26VGYp373WZMM74dZrL+pskRBe+7Xciobbbe6vSlT7wRQoVcFidHQ+zlfmTct8U7oxS9pW8x0A4BW8Z1FnD++Iu4jNU7PiQBcuBTv/QFEn9pv59hIp9NnCgEvlMwiFWyB/6mNIc+1oYVflUchFXzy63DE5W+vNUOZNy3xT6r1nfEmfprrXZsxqvgMAvILPeVK3H+4FhU3N+Z7KD0luKOpKf+1YirrPIH1S536uCzfTvhUJF58DSt6UVHlk8sXmT5IfI/mizJuW+aaIZ8juo/fTvN7fVK3jOwDAK/iwoq5/oDfne3I/3JOB9LLf59tLpdAntcGbkhZ1G+LamfV3bUfzuxpv87N4imR09mQq86ZlvikjMTZj7H5czHcAgFfwQb9T5z9OUwo2Q3t+0r/7UXz8Yy+SoKMs+FpPe+A9KYo6af3MettcGMutlHo/eBl7W0Ofya/heQMyP4jeGZL3r+U7AMAr6BR1/mA1F1GKcjA/il6U1fZkl1/SbhHklBeLfb3P8V+7sM9zhZ0mD94VlxOxqNuwT+v876ql6zq8tr39kPdXBYhY1Bm0eR2Zb087ZlVftQaf7jsAwGsZflK3CnrRCF+FKe7IBQAAWIQvK+rq36GD78UU+OQCAACswvpFXfjIK8CTGQAAAFiQr/v4FQAAAGBFKOoAAAAAFoCiDgAAAGABKOoAAAAAFoCiDgAAAGABKOoAAAAAFoCiDgAAAGABKOoAAAAAFoCiDgAAAGABKOoAAAAAFoCiDgAAAGABKOoAAAAAFoCiDgAAAGABKOoAAAAAFoCiDgAAAGABKOoAAAAAFoCiDgAAAGABKOoAAAAAFoCiDgAAAGABKOoAAAAAFoCiDgAAAGABnlDUXe63f//u/36v9x+xv8XsvPfjctv82Hy5XeT+d8LY+nv9EfveiU+x8wxe5/vP/fq7xh58KZcbMXsWJpbmHrD83q8/oe+598PP9TfquV2EMevcR++NifPtfhH74BnoRV224Rz1ZfP8ou6TLnRb0H3QQbBiUfdJ+TLC6/yhqDvMz/X+mxUff8UKRYjzQX4zfI5/trijqPtT7Bq8NM7ftbYDRV1SVdsD7fwLZ7VL+p2gqHt/yP93xRXBf742/ly+vvxyfDL2PnntU5t2UQev5GVn3Cp75QDHirqiTX+k7avjDPcOtzUva0/Zx/gnC1V7j8KWocU1uoy96dwQC2dH+g5zPyxMfG5Xb+c2/+IK4aiz7UNI9DQOUceMD4ZC30bcTM+OyyM+tOxsx7qfL8+OWdsWcV6ytjotfUJfJrOcl+7V1rxal7oOwzHbsGdDnNvNM2WvODtm86ztgz6vg7FXjEcrz5wd7XyZYdPl5VtZoj0SejznY9ae1yW5S9L2VE+d73M+BKT46/oSeZ5z8+zReMa577j/dpoFvdf30B4JbLK8bmvnkVh+MMeLOuHjB2mjmEXf2/wTvjKppXmGkDBSexzvEkcal1OO8wnXTZqQmMHXVI77OfVn98VvLNNn7bXxM4nq5Gg+uPGxPyRiOW63retDqc+9Tn14PC65jlkfenaKsa7GxjE9fRqztuTzSv1t2vp0mWUcUkZtCesTDruf6/audt/b4z64vM/PBUcpw722til7ZR93MM/cAd72QZvnxrcxc+tYKP75n7XcfYQjtvfiORuzmXyx8428kiIudaxKH3J9I7Zo8df6LLYIiv1n5NlMPC0fsv8irj3dG45nFnWR0fivwPGiLilQQlu9GdzCxAWTF7a1iUzC1ElgZBa2GPt6CyX5MPTYv066aK/Sl9gU/QgbRffBbpTUH2/ntA/CmN2mJ8blUR9UO9V1KMfGMafETLVlMj9VfbpMq1v0Z9wWK0OxsYy1jItLtQYGbd0Tm3Kf46VyNM/qWOQ+HJmXI9hj0PwbyN1H6K1djh7PfOx8zA75J8UuoZZ1LJ5S39HxEWFPFaTz5/MsR7cp4OLyCfsvJerM28/A2pDauzAnPalzCbG3CXMMhxbbythklvQWKknEvU1JwIh2gCh92kbp+NBM8lkfhDG7jifGJc2TGR9UO9V1KMfGMafETLPFzmuvbRhfoekbkGnGhvY9Bgdssfan7dJcYY/mmPwuciKgrXvSF2PcuVR8rMQ1Dyg+qPNUGj5q/g3kbpPKhzpvq7VT0eM5HTNlXpdUv0Adq048B2zR4q/1mRhUaz8bM42peH7O/kvR4n2ISt+je+WzOVzU2eBIbcXimEVPF1VKgNaiignjE7F1ADSRDg6prUI7QJQ+baN0fGhulFkfBH27jifGRfY56Q9jGvpUO3sHeTY2jpn2b9aW2fzU9B2S6Q72o/Os/fthl8hI+4U9miPkREBbd/Pv0Uull2cdH9rzejR81PwbyN1HyNeuRzue8zGbzRePFLuEWpYWzzFbNPuafcbOqv2MPJuNZyM3DVp++vV/5f5Lmd+Lx7E2DO+Vz+ZYUWdf18lTLdrgpdJabHkBXJL1E7ykTDInp59M2gFSyPBxsX0DG6Xlw/hGGfXBzQs+WPt3Oc+KSy5nzgfNzsKuNNZetpwvs/7N2uL6Wmvbpq9vTGZq2/i8PHa5LW4fH5Aj7nllHQb2ymyetXxoz+sjz1X8y37e+oTcfQQ571to8ZyNmT6vi43Hc4u6ni21zE6fldPO6+Mx05iPp7X9A/ZfpF5Lh5s/4vMRbHyG98pnM1DUbQHeST9CdYuS928kSV32uSTQ54my9756rpxYJT5RAkMJUyddtulDshq2ZLmEPmWjuNi1fdAPghkfNtI13OYYH6KO+bjsczZSm6d90OxsxXqX28qX58Qs80m1ZTI/1TVqyazbc//GbCkPO/t6n3NzXwUwGLd8bqqvsQ7KXunZr+WZ5oOenx3sOrUvzl1nGq9u7h5FWHcvW7+w9HjOxuyRfJHj2fDPynR9rTO5bUtf5vG+c/LskXjmc1P977P/duy+UPbSoM86jfXr7pXPRi/qZpEWzLbVv1cHn4bbKPU7rHV5qBB4c+wB/JQD9Nm8Y545mz4zF75v38IjnJsvK5+pf805RZ3wDsxV71JlDp8FRd06uHfF7+nbm+bZx745paiDI5yXL7YWWPxp2V9yTlG3YS7C/LEnBd0aUNR9NOnHgYa3fEpneOM8Sz62EvvfEoo6OMJZ+WLeSFILnMlpRR0AAAAAvA6KOgAAAIAFoKgDAAAAWACKOgAAAIAFoKgDAAAAWACKOgAAAIAFoKgDAAAAWACKOgAAAIAFoKgDAAAAWACKOgAAAIAFoKgDAAAAWACKOgAAAIAFoKgDAAAAWACKOgAAAIAFoKgDAAAAWACKOgAAAIAFoKgDAAAAWACKOgAAAIAFoKgDAAAAWACKOgAAAIAFoKgDAAAAWIDvKuout/u/f/88v/frT+i73G+m7fd6/ynnTPBz/Y16bhdhzHP1lVxu/+6/1x+xr+bnfv09Mn6eflw+m2f5d2z9oI3ZZ7f7RewDAFiPsaKuWQx9Eq6Qul3afc8usuwlv1RR1x57RGc7Ls9ntkB6pLB61D+Kuh4uD+OZtJHF2++vBHnfS7T2ZqEz06f1aZwhEwC+mW5R554+pIXcdtjczilGTuXnev998bv2VxYvKecVdd6n6sIzF+F4sU9Rp0NR18PlbCzUXCHmYpb8bN6MHlkH++b1dr8KOW7WJMpK9el9GmfIBIDvplPUucOk/S7X9e/vJsNBaA/Tq3+nuV32F1NQuX53IJsCIJ0bi61wobli0vVH/cW716q4UPAHdlnUpXryC0C3c8QW6XLX9SXyPGO+13PjBdCz0/UPP8mwxXFRwJnY7nJ7+lpFTyOXNvSckMninFJclHu719efN+ufxiPrp2BzXpL5bvvWyxyOmZNXyrf+pfm5+RN97rHZ4O2yPqQ2Cjkfxmh96jqdIRMAvh69qGsUQo7kIE1e24PZXybm0LXvOK0Mc3D/xnHJoZW+K3Xj4+v0MPu5bu+i94Ou1C9j54fLJKW4QOy4rK20M9c3Ykstc6zPYi/Y2K/pS+MXXh+x04wfLuoEGUf1tWIdx7nXYYyWE1GGTGpbRNdnkOfN+qdj/WvoHtEnYvdgXhg4FN//bN8+WNTZIii8jnbebr9jsSqo8svEpXxt7N3io/XJ56bnDJkA8PXMF3VSnz1c80MpXlD55ZAVEcX47EDzMiUbDl2emi8btazaTk2f1Hd0fMTESj/A9/lCfGLM8zkGSa8Zn61HBytjXyO3rnXx4JD0VW1KLpm2IzlRIsaio8+81mKYMuSfxhPWr0YqnDyK7+U+dPP/eN+KhMItUOef1eH7R9Yxxc5NfQl+Wp+MTOOXj4vS19oTljNkAsDX81hRlx58Bn+Qp33Dl4PXo16m+yGXMHo5aL5s1BdNp6gbsEW7vLQ+E4OqyGrp8zFP/cpiOGCnqE/DyvQXTJkHM3FRcqmbEx3EuR195nVT54x/GoVew9H1qzF7rbGmiu9pX7Thj/etSGqL+7nWbdq3HA0fIR/QZ9cvjZH109idrFMas0ZfuqYVZ8gEgK9HL+r8Ydy8HMpDxrfZf49eDtX4pN/iLqq079DlKdmbUMuq7YxjxmzR7Gv2GTurdkWfcNjnMX8gZk3iRZqv12RcpLVJ2tSCoYM4t6PPvJZ1Pr7uFaesn7DHAorv9t9327cihS2ST1ava7P60iKtQzXerlHxlMz7rvWp+s6QCQBfT+c/SrjDOj8wtwP1Zn5xujys40WfHkD9yyGX07sc9nn24NtsG70cjE3VwR+pL5r6EotjxmzRLi+xz8qRbNT05X1W7vY6xrxnpxvTsrOF1fP7u8lLL5/ZuLh5cd2TXNpet3Oij7OzvAx1fb15j6x7TS7Tzt1tG9Mn4eS0c0n0/c/2rRszHrPSlnr9rB7ri+sbly2tvZext6X6tD4/P/j8TJkAAALdos5gDmz3cYChvsT3vnBwDlwOUV5+WGkXeLjwHDf31QOjh7VY1NW2WKxM1xcvjvyybtvSl3m8r+O79S2ON2NDDPsxO3qhesSLajYuZm4jlza0nOhT6B3Qp82b90/hofVrk89NY/hu+/ZoDjpb0r3pYrjZmcYyMCS3sX5FYRXac1+1vo3GXnlIJgCAwFBR91zcYZUdyADw5nzYvjXF3XCRCACwBhR1ADDAZ+3b9GknAMC3QFEHAAOwbwEA3p0/KOoAAAAA4NlQ1AEAAAB8PP+5//+rXNqUNaSdYQAAAABJRU5ErkJggg==;" parent="1" vertex="1">
          <mxGeometry x="2030" y="520" width="629" height="247" as="geometry" />
        </mxCell>
        <mxCell id="UnqX31d-6hZHX5KGmmkH-26" value="" style="endArrow=classic;html=1;rounded=0;entryX=0;entryY=0.25;entryDx=0;entryDy=0;exitX=1;exitY=0.5;exitDx=0;exitDy=0;" parent="1" source="UnqX31d-6hZHX5KGmmkH-1" target="UnqX31d-6hZHX5KGmmkH-24" edge="1">
          <mxGeometry width="50" height="50" relative="1" as="geometry">
            <mxPoint x="1897" y="480" as="sourcePoint" />
            <mxPoint x="1800" y="781" as="targetPoint" />
          </mxGeometry>
        </mxCell>
        <mxCell id="UnqX31d-6hZHX5KGmmkH-27" value="4" style="edgeLabel;html=1;align=center;verticalAlign=middle;resizable=0;points=[];fontSize=28;" parent="1" vertex="1" connectable="0">
          <mxGeometry x="1489.9986304270226" y="590.003180824372" as="geometry">
            <mxPoint x="410" y="-31" as="offset" />
          </mxGeometry>
        </mxCell>
        <mxCell id="UnqX31d-6hZHX5KGmmkH-29" value="" style="endArrow=classic;html=1;rounded=0;entryX=1;entryY=0.75;entryDx=0;entryDy=0;exitX=0;exitY=0.5;exitDx=0;exitDy=0;" parent="1" source="UnqX31d-6hZHX5KGmmkH-24" target="UnqX31d-6hZHX5KGmmkH-1" edge="1">
          <mxGeometry width="50" height="50" relative="1" as="geometry">
            <mxPoint x="1947" y="500" as="sourcePoint" />
            <mxPoint x="1850" y="801" as="targetPoint" />
          </mxGeometry>
        </mxCell>
        <mxCell id="UnqX31d-6hZHX5KGmmkH-30" value="" style="shape=image;verticalLabelPosition=bottom;labelBackgroundColor=default;verticalAlign=top;aspect=fixed;imageAspect=0;image=data:image/png,iVBORw0KGgoAAAANSUhEUgAAAKkAAAAqCAYAAADI8XtZAAAAAXNSR0IArs4c6QAAAARnQU1BAACxjwv8YQUAAAAJcEhZcwAADsMAAA7DAcdvqGQAAAUCSURBVHhe7VpbjqswDJ2VdF+shs9ZBEtgEaP+V5olcUmch2NsEwKM0lsjHakTx6+TkwyFfj0ej8Vg6BkmUkP3MJEaukeXIh2m5/J6vQDziGzDMj1fyzyW8w0rxjlwNi/j+vcwzcs0MPPeEFUiHecgGITnNLBzr4QXq4m0CkmURKzc3GsAa5E0UazTtagW6V+IksJE2i/8wZXWZlzmGw+uC0RKdhTdwWlnA3IcaCzZntMyYL8VskixL85HamFibrEVfsrrap+nEPO5TOO0PIu4LfkcpN5dvDXPIPW3QuRTq2WP62CvPQ0Hx4OrM495zqr7P4bTIt0KCcETWjYDAEI3BJM4kkhzzDJOeR9Gc0iAeaJI18VzNrjlcYJxCwr5z+Tjew+fEWfFiSXyqdWi5YvzD4rU1YEFmTbOPbcYzfekcVH9grLFUXIQfFPEx+/OckwSKSuoNKfOlqHERIuRN2oWaRmnMp/SO1dLrEHlk0HRQwXXhxB58XGiOGVezuKSe1Is4jwPdmdBeARa/DR2hUgTaQh7ojkj0pZ8Su+iSL1N4dNBqqWS60PwNbkcKMbZmAou/uIERMJchvCIQHzREDN2TKQ4t+TPoU2kzfmU3kWRrjWofGq1KPmaBeUFSU7NUGexGS7CxSIFIuNcTxRLBiW19IvYLroiqBAz2eLJsicamtsv4PYUkkR6PJ/WO+2vnLvHJ1+Llq/03689AmJkUXIxr0PzPSkmtbCRRoHYbM+NBGIikh8TM9nBxouU5lq/SCCbirioDivxY/RTROpOkeZ8B3qnC0/XItr1WqR8EUdF6lDWSuu8ElUiNfwVtpuQQ/1/tv8DJtKuUCNSN+eeb9G9wkTaFepO0k+DidTQPUykhu5hIjV0DxOpoXuYSBl82iOe3lElUvlhPj//3WEi7QvVIv2kRTOR9oWTIo0PlvFrN+7HDNwJDM8Ekw29kov58Ku++OxQs21iFu+WtTqJ34pcJ3mlmGLuocVPr1PvXctHbB7wQqCJT7emt/wYnMcFIg2F+jcg8Hea6wUabSVcTPrOOvp5m2su2D2BoVHNtvfDX6nOshbcL+knxkFzeZzzw5zh2qTe9/IV/YXfKeBNf5jPcPC4GODvNpLbCFB324/BZTTfk0KTUEDeeaFJ37BWnGuIOXGxEMNnb/PEwnzNlmIF0FrYOhl/lyMvBomt5Eto9WPqrOFFyxdP0RyzXJcmPklNECuLVPQj47W45CTlRUrJQfBEgNgLbBrf+mo2Nu5ZkeIFdFAWMaHVTxJp8BN7V/LFmEkkfrw8qQ/zuSdSyY/Gr8SNImUIj9hZMI042QabAtu0WqpFSuvkxiha/SSR7m3enXzODwsGx2jik60JRKqvA45fjxtFGj6zCwN+UuFyvn1SUy1xN/scWp2lH9SMicf5II5UW0arH62zjFMvKJSv+UAoeSn4rBApvw5kjJ7+AprvSaEwbfHR3xs/ZwNfziYTp9vKXPiHvzt1+lMn+K1jzpZzAOnYHmPoaPGTOXHQetfyyevXyKciUvjiJK1DiH2HSA1/he1mOg3uJPVj/JecHmEi7Qo3iBTdm8YxOOnkW4DeYCLtCjeIdMX23/37CNTBRGroHiZSQ/cwkRq6h4nU0D3eTqT6s8LPRRUv+HnwjY+giuekO8+Ha+r+Wuyyq/PLRGpX95eJ1K50/f6GD51dJlK7/PXzs4phVcP3dxjo5lqWf37XYk19YI7pAAAAAElFTkSuQmCC;" parent="1" vertex="1">
          <mxGeometry x="1560" y="820" width="169" height="42" as="geometry" />
        </mxCell>
        <mxCell id="UnqX31d-6hZHX5KGmmkH-31" value="" style="endArrow=classic;html=1;rounded=0;entryX=0.5;entryY=0;entryDx=0;entryDy=0;exitX=0.5;exitY=1;exitDx=0;exitDy=0;" parent="1" source="UnqX31d-6hZHX5KGmmkH-1" target="UnqX31d-6hZHX5KGmmkH-30" edge="1">
          <mxGeometry width="50" height="50" relative="1" as="geometry">
            <mxPoint x="1650" y="660" as="sourcePoint" />
            <mxPoint x="1560" y="961" as="targetPoint" />
          </mxGeometry>
        </mxCell>
        <mxCell id="UnqX31d-6hZHX5KGmmkH-32" value="0" style="edgeLabel;html=1;align=center;verticalAlign=middle;resizable=0;points=[];fontSize=28;" parent="1" vertex="1" connectable="0">
          <mxGeometry x="1550.3583896509613" y="379.95059924339444" as="geometry">
            <mxPoint x="83" y="361" as="offset" />
          </mxGeometry>
        </mxCell>
      </root>
    </mxGraphModel>
  </diagram>
</mxfile>
